<svg id="London" xmlns="http://www.w3.org/2000/svg" width="3000" height="1167" viewBox="0 0 3000 1167">
  <style>
    .st0{fill:#178BFF;} .st1{fill:#D8C53D;} .st2{fill:#2272D3;} .st3{fill:#B2D3ED;} .st4{fill:#4AA7F4;} .st5{fill:#4C9FD8;} .st6{fill:#288DC6;} .st7{fill:#1C82AF;} .st8{fill:#0F53B7;} .st9{fill:#2D2919;} .st10{fill:#44B260;} .st11{fill:#4E6A7C;} .st12{fill:#5D7F91;} .st13{fill:#425A68;} .st14{fill:#557684;} .st15{fill:#564E2E;} .st16{fill:#72683E;} .st17{fill:#132454;} .st18{fill:#0F1E3F;} .st19{fill:#3D3821;} .st20{fill:#9FBED3;} .st21{fill:#2C2042;} .st22{fill:#372751;} .st23{fill:#2B2717;} .st24{fill:#8E8149;} .st25{fill:none;stroke:#2272D3;stroke-width:40;stroke-miterlimit:10;} .st26{fill:none;stroke:#2C2042;stroke-width:19;stroke-miterlimit:10;} .st27{fill:#FFFFFF;} .st28{fill:#324C84;} .st29{fill:#2A4370;} .st30{fill:#412E72;} .st31{fill:#38255E;} .st32{fill:#59543E;} .st33{fill:#756F59;} .st34{fill:#423E30;} .st35{fill:#4B3D66;} .st36{fill:#50387F;} .st37{fill:url(#SVGID);} .st38{fill:#97B9D1;} .st39{fill:#E8A656;} .st40{fill:#D6853C;} .st41{fill:#433363;} .st42{fill:#1F1830;} .st43{fill:#D3333F;} .st44{fill:#0F2B3F;} .st45{fill:#A02D3B;} .st46{fill:#051421;} .st47{opacity:5.000000e-002;fill:#FFFFFF;} .st48{fill:#EF1640;} .st49{fill:#71717D;} .st50{fill:#93D8A2;} .st51{fill:#110E1C;} .st52{fill:#242430;} .st53{fill:#4D4D55;} .st54{fill:#ADB7C0;} .st55{fill:#D6D9E0;} .st56{fill:#1E49E2;} .st57{fill:#F4BDC3;}
  </style>
  <path id="Sky" d="M0 0h3000v1167H0z"/>
  <circle id="Sun" fill="blue" class="st1" cx="303.3" cy="685.9" r="268.6"/>
  <path id="Sea" class="st2" d="M0 778.3h463v42.5H0z"/>
  <g id="TheShard">
    <path class="st3" d="M748 44.5l-83.7 756.6 92.5-6V44.5z"/>
    <path class="st4" d="M861.7 801.1L777.9 44.5h-21.1v750.6l6.2-.4z"/>
  </g>
  <g id="Building5">
    <path class="st4" d="M2039.6 367h101v410.2h-101z"/>
    <path class="st5" d="M2073.5 367h67.2v410.2h-67.2z"/>
  </g>
  <g id="Building4">
    <path class="st4" d="M1927.5 297.8h101V708h-101z"/>
    <path class="st5" d="M1961.4 297.8h67.2V708h-67.2z"/>
  </g>
  <g id="Building1">
    <path class="st4" d="M1118.5 294.4h101v410.2h-101z"/>
    <path class="st5" d="M1152.4 294.4h67.2v410.2h-67.2z"/>
  </g>
  <g id="Building2">
    <path class="st4" d="M1211.9 249.6h101v498.5h-101z"/>
    <path class="st5" d="M1245.8 249.6h67.2v498.5h-67.2z"/>
  </g>
  <g id="Building3">
    <path class="st4" d="M1290.8 155.5h101v576.9h-101z"/>
    <path class="st5" d="M1324.6 155.5h67.2v576.9h-67.2z"/>
  </g>
  <g id="CityHall">
    <path class="st4" d="M1705.8 536.4l-71.8 33.2 57 26.3 71.8-33.2zM1490.5 635.8l-16.7 7.7c-5.5 18.7-9.4 38.1-11.6 58l85.3-39.4-57-26.3zM1590.7 682.1L1460 742.5c.1 21.7 2.3 42.9 6.3 63.5l196.3-90.7-71.9-33.2zM1762.8 470.1l-96.9-44.8c-18.3 8-35.7 17.6-52.2 28.5l92.1 42.6 57-26.3zM1803.8 491.1l-54.8 25.3 54.8 25.3zM1691 635.8l-57 26.4 71.8 33.2 57-26.4zM1662.5 516.4l-81.7-37.8c-16.2 13.8-31.2 29.2-44.6 45.8l54.5 25.2 71.8-33.2zM1514.6 554.4c-8.4 13-15.9 26.7-22.5 40.8l55.4-25.6-32.9-15.2zM1803.8 396.5c-30.7 0-60.5 4-88.8 11.6l88.8 41v-52.6zM1647.7 615.9l-57-26.4-57 26.4 57 26.3zM1803.8 782.6l-294.1 135.9c60.3 99.3 169.5 165.7 294.1 165.7 120.5 0 226.5-62 287.9-155.9h-287.9V782.6zM1803.8 583.7l-69.6 32.2 69.6 32.1zM1749 715.3l54.8 25.3V690zM1705.8 735.3l-230.6 106.5c4.7 15.4 10.6 30.3 17.3 44.7l270.2-124.8-56.9-26.4z"/>
    <path class="st5" d="M1906.2 496.4l89.6-41.4c-16.3-11-33.6-20.6-51.8-28.7l-94.8 43.8 57 26.3zM2021.3 642.2l57-26.3-57-26.4-57 26.4zM2021.3 549.6l51.3-23.7c-13.3-16.6-28.1-32-44.2-45.9l-78.9 36.5 71.8 33.1zM2114.3 592.6c-6-12.7-12.8-24.9-20.3-36.7l-29.5 13.6 49.8 23.1zM1806 450.1l89.4-41.3c-29.1-8-59.8-12.3-91.5-12.3v52.6l2.1 1zM2064.5 662.2l80.7 37.3c-2.4-20-6.5-39.5-12.1-58.2l-11.6-5.4-57 26.3zM1849.2 669l57 26.4 71.8-33.2-56.9-26.4zM1803.8 690v50.6l2.2 1.1 57-26.4-57-26.3zM1806 542.7l57-26.3-57-26.3-2.2 1v50.6zM1921.1 595.9l56.9-26.3-71.8-33.2-57 26.3zM1849.2 761.6l266.6 123.2c6.7-14.4 12.4-29.4 17.1-44.8l-226.7-104.7-57 26.3zM1949.5 715.3l192.3 88.8c3.9-20.6 5.9-41.9 5.9-63.6l-126.4-58.4-71.8 33.2zM1806 649.1l71.8-33.2-71.8-33.2-2.2 1V648zM1803.8 782.6v145.7h287.9c2.4-3.7 4.8-7.5 7.1-11.4L1806 781.6l-2.2 1z"/>
    <path class="st6" d="M1492.1 595.2l-1.6.7 1 .5.6-1.2zM1803.8 489.1v2l2.2-1zM1803.8 581.7v2l2.2-1zM1803.8 690l2.2-1-2.2-1zM1803.8 782.6l2.2-1-2.2-1zM2121.5 595.9l-7.1-3.3c.9 1.8 1.7 3.6 2.5 5.4l4.6-2.1zM1803.8 449.1v2.1l2.2-1.1zM1803.8 541.7v2.1l2.2-1.1zM1803.8 650.1l2.2-1-2.2-1.1zM1803.8 742.7l2.2-1-2.2-1.1zM1771.6 434.2l-56.5-26.1c-16.9 4.5-33.4 10.3-49.2 17.2l83 38.4 13.9 6.4-57 26.3-70.9-32.8-21.3-9.8c-1.4 1-2.9 1.9-4.3 2.9-3.3 2.2-6.5 4.5-9.7 6.9-6.5 4.8-12.7 9.8-18.8 15l10.8 5 25.6 11.8 2.8 1.3 42.5 19.6-9.6 4.5-1.3.6-34.3 15.8-10.2 4.7-16.4 7.6-8.3-3.8-46.2-21.3c-7.7 9.6-15 19.6-21.7 29.9l32.9 15.2-42.2 19.5-9.5 4.4-2.5 1.2-1.2.6-.6 1.2c-2.5 5.4-4.8 10.8-7 16.3-2.3 5.7-4.4 11.5-6.4 17.4-1.5 4.5-2.9 8.9-4.2 13.5l16.7-7.7 5.3 2.4 9.5 4.4 35.5 16.4 6.7 3.1-6.7 3.1-24.5 11.3-6 2.8-5 2.3-15 7-9.8 4.5-1.1.5-2.1 1-15 6.9-.6 6c-.8 8.4-1.3 17-1.5 25.6-.1 2.4-.1 4.8-.1 7.2v2.2l19.3-8.9 1-.5 24.9-11.5 4.3-2 25.3-11.7.8-.4 10.4-4.8 17.6-8.1 3.3-1.5 23.8-11 23.8 11 3.3 1.5 28.7 13.3 14.8 6.8 1.2.6-1.2.6-22 10.1-15.4 7.1-17.5 8.1-17.3 8-16.9 7.8-42.5 19.6-2.4 1.1-1.1.5-1.2.6-3.6 1.7-5.9 2.7-8.5 4-15.2 7-12.3 5.7-2 .9-1.1.5-9.9 4.6c.1.7.3 1.4.4 2.2.6 3.1 1.3 6.3 2 9.4.3 1.1.5 2.3.8 3.4.6 2.5 1.2 5 1.9 7.5.2.8.4 1.6.7 2.4.1.5.3.9.4 1.4.9 3.2 1.8 6.4 2.8 9.6l4.1-1.9 5.3-2.5 3.1-1.4 2.8-1.3 8.4-3.9 5.2-2.4.9-.4 11.8-5.5 3.5-1.6 6.8-3.2 7.5-3.5 34.8-16.1.9-.4.3-.1 1.5-.7 15.3-7.1 1.5-.7 12.7-5.9 5.8-2.7.2-.1 4.8-2.2 3.6-1.6 45.2-20.9 2.6-1.2 7.1-3.3 20.6-9.5 4.8-2.2 3.4-1.5 6-2.8 6 2.8 1.5.7 18.2 8.4 9 4.2 22.3 10.3-2.5 1.1-14.5 6.7-2.4 1.1-11.9 5.5-1.3.6-3.5 1.6-4.9 2.2-5.9 2.7-2.5 1.2-11.8 5.4-5.1 2.4-17 7.9-11.5 5.3-6.5 3-27 12.5-4.6 2.1-11.6 5.3-16.4 7.6-28.7 13.3-42.1 19.5-34.9 16.1-3.5 1.6c5.2 11 10.9 21.7 17.2 32l72.8-33.6 34.9-16.1 16.3-7.5 13.8-6.4 12-5.5 1.9-.8 18.1-8.4 1.2-.5 7.6-3.5 5.9-2.7.3-.1 9.5-4.4.8-.4 8.7-4 7.5-3.5 22.6-10.4 16.9-7.8 17-7.9 18.1-8.3 8.4-3.9v-42l-5.6-2.6-2.9-1.3-7.8-3.6-2.4-1.1-4.9-2.3-5.4-2.5-9.8-4.5-6-2.8-10.1-4.7 16-7.4 9.8-4.5 5.4-2.5 2.7-1.3 8.7-4 2-.9 1.6-.8 8.4-3.9v-42l-8.4-3.9-13.2-6.1-1.9-.9-3-1.4-43.1-19.9 6.9-3.2 35.5-16.4 3.7-1.7 23.5-10.9v-42l-23.5-10.9-31.3-14.5 31.3-14.5 23.5-10.9v-42l-32.6-14.6zm-40.1 249.3l-24.2 11.2-1.5.7-1.5-.7-22.4-10.4-2.5-1.1-14.3-6.6-.2-.1-3.7-1.7-27.4-12.6 31-14.3 3.4-1.6 2.7-1.2 10.8-5 3.7-1.7 5.4-2.5 2.2 1 2.5 1.2 35.8 16.5 3.4 1.5 27.9 12.9-16.4 7.5-14.7 7zm-190.7-64.4l-7.1-3.3 6.9-3.2.2-.1 15.5-7.2 23.4-10.8 2.7-1.2 8.3-3.8 11 5.1 5.4 2.5 10.2 4.7 23.6 10.9 6.9 3.2-30.4 14.1-10.2 4.7-16.4 7.6-8.3-3.8-24.8-11.4-16.9-8zm222-56.4l-31.3 14.5-37.7 17.4-.6.3-2.2 1-2.8-1.3-19.7-9.1-34.5-15.9 34.5-15.9 24.7-11.4 12.7-5.8 25.7 11.9 31.2 14.3z"/>
    <path class="st7" d="M2145.2 699.5l-.2-.1-2.3-1.1-2.1-1-64.1-29.6-3.1-1.4-8.9-4.1 8.9-4.1 3.1-1.4 29.7-13.7 15.2-7 11.6 5.4c-.9-3.1-1.9-6.3-3-9.4-3.8-11.6-8.3-22.8-13.3-33.8-.8-1.8-1.7-3.6-2.5-5.4l-37.8-17.5-3.1-1.4-8.9-4.1 8.9-4.1 3.1-1.4 17.5-8.1c-5.4-8.6-11.3-16.9-17.5-24.9-1-1.3-1.9-2.5-2.9-3.8l-.2-.2c-.3-.4-.6-.8-.9-1.1l-2.9 1.4-30 13.9-11.1 5.1-7.3 3.4-59.9-27.7-11.9-5.5 11.9-5.5 67-30.9c-10.3-8.9-21.2-17.2-32.6-24.9l-34.4 15.9-33.8 15.6-21.3 9.9-57-26.3 78.3-36.2 16.5-7.6c-5.4-2.4-10.9-4.7-16.5-6.9-10.5-4-21.2-7.6-32.2-10.6l-89.4 41.3-2.2 1v37.9l2.2 1 57 26.3-57 26.3-2.2 1V582l2.2 1 71.8 33.2-48 22.2-23.8 11-2.2 1V688l2.2 1 57 26.3-10.1 4.7-28.5 13.2-10.6 4.9-7.8 3.6-2.2 1v37.9l2.2 1 61.6 28.5 16.9 7.8 6.7 3.1 16.2 7.5 10.6 4.9 5.1 2.4L1958 852l16.1 7.5 3 1.4 27.4 12.6 11.5 5.3 13.3 6.2 1.1.5 68.2 31.5c6.2-10.3 11.9-21 17-32v-.1l-75.8-35-46.3-21.4-16.2-7.5-.3-.1-11.8-5.4-15.7-7.3-59.6-27.5-4.9-2.2-.9-.4-16.9-7.8-1.4-.7-16.9-7.8 22.3-10.3 28.7-13.3 6-2.8 6 2.8 28.7 13.3 6.2 2.8 30.3 14 6.1 2.8 15.9 7.3 4.8 2.2 29.3 13.5 58 26.8 16.2 7.5 25.1 11.6c1.2-3.8 2.3-7.7 3.3-11.6.7-2.5 1.3-5 1.9-7.5 1.3-5.6 2.5-11.2 3.6-16.8l-55.8-25.8-.1-.1h-.1l-1.9-.9-.3-.1-6.8-3.2-3.1-1.4-33.8-15.6-20.6-9.5-20.3-9.4-10.6-4.9-18.4-8.5-10.1-4.7-10.1-4.7 15.8-7.3h.1l38.9-18 17.1-7.9 1 .5 6.2 2.9 11.1 5.1 33.8 15.6 3.1 1.4 64.1 29.6.4.2 4 1.8 2.6 1.2v-.2c.1-13.7-.7-27.3-2.3-40.7zm-296-136.8l57-26.3 21.3 9.8 33.8 15.6 16.7 7.7-16.7 7.7-33.8 15.6-6.5 3-71.8-33.1zm0 106.3l27.9-12.9 39.2-18.1 4.7-2.2 4.7 2.2 1.8.8 33.8 15.6 3.6 1.6 13.1 6-16.7 7.7-33.8 15.6-11.6 5.4-9.7 4.5-7.2-3.3-49.8-22.9zm190.4-35.3l-11.1 5.1-7.3 3.4-18.6-8.6-38.4-17.7 57-26.3 7.3 3.4 11.1 5.1 33.8 15.6 3.1 1.4 1.7.8-1.7.8-3.1 1.4-29.6 13.7-4.2 1.9z"/>
  </g>
  <path id="Water" class="st8" d="M0 1004.3h3000V1167H0z"/>
  <path class="st7" d="M1359.8 733.1H2019v47.4h-659.2z"/>
  <g id="Waves">
    <path class="st2" d="M2586.2 1086s.2 0 .7-.1c.5 0 1.2-.1 2.1-.1 1.8 0 4.7.2 8 1.5 1.7.6 3.4 1.4 5.2 1.9 1.9.5 3.9.8 6.1.8.6 0 1.1 0 1.7-.1.6-.1 1.2-.1 1.8-.2.6-.1 1.1-.2 1.7-.3.6-.1 1.1-.3 1.7-.4 1.1-.4 2.2-.8 3.4-1.4 1.1-.6 2.3-1.3 3.7-2 2.8-1.6 6.4-2.7 9.9-3 .4 0 .9-.1 1.3-.1h1.4c.8 0 1.6 0 2.6.1 1 0 1.9.2 2.9.3 1 .2 1.9.4 2.9.7 1.9.6 3.7 1.4 5.2 2.1 1.5.7 2.8 1.2 4.2 1.5 1.4.3 2.8.4 4.4.5h1l1.4-.1h.7c.2 0 .4-.1.5-.1l1-.1c1.5-.3 2.8-.7 4.2-1.3 1.4-.6 3-1.6 5-2.5 2-.9 4.4-1.6 6.6-2 1.1-.1 2.3-.3 3.4-.3h3.2c.4 0 1.1.1 1.7.1.6.1 1.2.1 1.8.2 1.2.2 2.3.4 3.5.8 2.3.7 4.4 1.8 6.1 2.6 1.7.8 2.9 1.3 4.4 1.6.7.1 1.5.3 2.3.3.4 0 .8.1 1.2.1h3.3l.5-.1c.7 0 1.5-.2 2.2-.3 1.5-.3 2.8-.8 4.4-1.6 1.6-.8 3.7-1.9 6.1-2.6 2.3-.7 4.7-1 6.9-1.1h3.3c.8 0 2.2.2 3.4.3 2.3.4 4.6 1.1 6.6 2 2.1.9 3.6 1.9 5 2.5 1.4.6 2.7 1.1 4.2 1.3.8.1 1.5.2 2.3.3H2756.9l1-.1c.7-.1 1.4-.2 2.1-.4 1.4-.3 2.7-.8 4.2-1.5s3.3-1.5 5.2-2.1c3.9-1.2 7.7-1.2 11-.9.8.1 1.8.2 2.7.4.9.2 1.7.4 2.6.6 1.7.5 3.3 1.2 4.7 2 1.4.7 2.6 1.5 3.7 2 1.1.6 2.2 1 3.4 1.4 1.1.3 2.3.6 3.5.7.6.1 1.1.1 1.7.2.6 0 1.2 0 1.8.1 2.2 0 4.2-.3 6.1-.8 1.9-.5 3.6-1.3 5.2-1.9 3.3-1.3 6.2-1.5 8-1.5.9 0 1.6.1 2.1.1s.7.1.7.1-.2 0-.7.1c-.5.1-1.2.1-2.1.3-1.8.3-4.4 1-7.2 2.7-1.5.8-3.1 1.9-5.1 2.8-2 .9-4.4 1.6-7 1.9-.6.1-1.2.1-1.8.2-.7 0-1.4 0-2.1.1-1.4 0-2.8-.1-4.3-.3-1.5-.3-3-.6-4.5-1.2-1.4-.5-2.8-1.2-4.1-1.7-1.3-.5-2.5-.9-3.8-1.2-.6-.2-1.3-.2-2-.3-.3 0-.6 0-1-.1-.3 0-.6-.1-1 0-3 0-5.8.3-8.4 1.3-1.3.5-2.6 1.2-4.1 2.1-1.6.8-3.5 1.8-5.5 2.4-1 .3-2.1.5-3.1.7l-1.6.2c-.3 0-.6.1-.8.1h-.7l-1.4.1h-1.7c-1 0-2.1-.1-3.2-.2-2.2-.3-4.4-.8-6.5-1.7-2.1-.8-3.7-1.8-5.2-2.3-1.4-.6-2.8-.9-4.3-1.1-.7 0-1.3-.2-2.3-.2h-1.3l-1.2.1c-1.6.1-3.1.4-4.5.8-1.4.5-2.8 1.2-4.6 2.1-1.8.9-4.2 1.9-6.6 2.5-1.2.3-2.3.5-3.6.6l-.9.1h-4.1c-.6 0-1.1-.1-1.7-.1-1.2-.1-2.3-.3-3.5-.6-2.4-.5-4.7-1.5-6.6-2.4-1.9-.9-3.3-1.6-4.6-2.1-.7-.2-1.4-.4-2.2-.5-.4-.1-.7-.1-1.1-.2-.4 0-.6-.1-1.2-.1l-1.4-.1h-.2.1-1c-.8 0-1.6.1-2.4.1-1.5.2-2.9.5-4.3 1.1-1.4.6-3.1 1.5-5.2 2.3-2 .8-4.3 1.4-6.5 1.7-.6.1-1.1.1-1.7.1l-.8.1h-3.8c-1 0-2.1-.2-3.1-.3-1-.2-2.1-.4-3.1-.7-2-.6-4-1.5-5.5-2.4-1.6-.9-2.9-1.6-4.2-2.1-.6-.3-1.3-.5-2-.6-.7-.2-1.4-.3-2-.4l-.5-.1h-.5l-1.2-.1c-.6-.1-1.4 0-2.1-.1-2.9 0-5.3.5-7.8 1.5-1.3.5-2.6 1.1-4.1 1.7-1.4.6-3 .9-4.4 1.2-.7.1-1.5.2-2.2.2-.7 0-1.5.1-2.1.1-.7 0-1.3 0-2-.1s-1.3-.1-1.9-.2c-2.5-.3-4.9-.9-6.9-1.9-2-.9-3.6-2-5.1-2.8-2.9-1.7-5.4-2.4-7.2-2.7-.9-.2-1.6-.2-2.1-.3.3-.2 0-.2 0-.2z" id="Wave11"/>
    <path class="st2" d="M2344.3 1129s.2 0 .7-.1c.5 0 1.2-.1 2.1-.1 1.8 0 4.7.2 8 1.5 1.7.6 3.4 1.4 5.2 1.9 1.9.5 3.9.8 6.1.8.6 0 1.1 0 1.7-.1.6-.1 1.2-.1 1.8-.2.6-.1 1.1-.2 1.7-.3.6-.1 1.1-.3 1.7-.4 1.1-.4 2.2-.8 3.4-1.4 1.1-.6 2.3-1.3 3.7-2 2.8-1.6 6.4-2.7 9.9-3 .4 0 .9-.1 1.3-.1h1.4c.8 0 1.6 0 2.6.1 1 0 1.9.2 2.9.3 1 .2 1.9.4 2.9.7 1.9.6 3.7 1.4 5.2 2.1 1.5.7 2.8 1.2 4.2 1.5 1.4.3 2.8.4 4.4.5h1l1.4-.1h.7c.2 0 .4-.1.5-.1l1-.1c1.5-.3 2.8-.7 4.2-1.3 1.4-.6 3-1.6 5-2.5 2-.9 4.4-1.6 6.6-2 1.1-.1 2.3-.3 3.4-.3h3.2c.4 0 1.1.1 1.7.1.6.1 1.2.1 1.8.2 1.2.2 2.3.4 3.5.8 2.3.7 4.4 1.8 6.1 2.6 1.7.8 2.9 1.3 4.4 1.6.7.1 1.5.3 2.3.3.4 0 .8.1 1.2.1h3.3l.5-.1c.7 0 1.5-.2 2.2-.3 1.5-.3 2.8-.8 4.4-1.6 1.6-.8 3.7-1.9 6.1-2.6 2.3-.7 4.7-1 6.9-1.1h3.3c.8 0 2.2.2 3.4.3 2.3.4 4.6 1.1 6.6 2 2.1.9 3.6 1.9 5 2.5 1.4.6 2.7 1.1 4.2 1.3.8.1 1.5.2 2.3.3H2515l1-.1c.7-.1 1.4-.2 2.1-.4 1.4-.3 2.7-.8 4.2-1.5s3.3-1.5 5.2-2.1c3.9-1.2 7.7-1.2 11-.9.8.1 1.8.2 2.7.4.9.2 1.7.4 2.6.6 1.7.5 3.3 1.2 4.7 2 1.4.7 2.6 1.5 3.7 2 1.1.6 2.2 1 3.4 1.4 1.1.3 2.3.6 3.5.7.6.1 1.1.1 1.7.2.6 0 1.2 0 1.8.1 2.2 0 4.2-.3 6.1-.8 1.9-.5 3.6-1.3 5.2-1.9 3.3-1.3 6.2-1.5 8-1.5.9 0 1.6.1 2.1.1s.7.1.7.1-.2 0-.7.1c-.5.1-1.2.1-2.1.3-1.8.3-4.4 1-7.2 2.7-1.5.8-3.1 1.9-5.1 2.8-2 .9-4.4 1.6-7 1.9-.6.1-1.2.1-1.8.2-.7 0-1.4 0-2.1.1-1.4 0-2.8-.1-4.3-.3-1.5-.3-3-.6-4.5-1.2-1.4-.5-2.8-1.2-4.1-1.7-1.3-.5-2.5-.9-3.8-1.2-.6-.2-1.3-.2-2-.3-.3 0-.6 0-1-.1-.3 0-.6-.1-1 0-3 0-5.8.3-8.4 1.3-1.3.5-2.6 1.2-4.1 2.1-1.6.8-3.5 1.8-5.5 2.4-1 .3-2.1.5-3.1.7l-1.6.2c-.3 0-.6.1-.8.1h-.7l-1.4.1h-1.7c-1 0-2.1-.1-3.2-.2-2.2-.3-4.4-.8-6.5-1.7-2.1-.8-3.7-1.8-5.2-2.3-1.4-.6-2.8-.9-4.3-1.1-.7 0-1.3-.2-2.3-.2h-1.3l-1.2.1c-1.6.1-3.1.4-4.5.8-1.4.5-2.8 1.2-4.6 2.1-1.8.9-4.2 1.9-6.6 2.5-1.2.3-2.3.5-3.6.6l-.9.1h-4.1c-.6 0-1.1-.1-1.7-.1-1.2-.1-2.3-.3-3.5-.6-2.4-.5-4.7-1.5-6.6-2.4-1.9-.9-3.3-1.6-4.6-2.1-.7-.2-1.4-.4-2.2-.5-.4-.1-.7-.1-1.1-.2-.4 0-.6-.1-1.2-.1l-1.4-.1h-.2.1-1c-.8 0-1.6.1-2.4.1-1.5.2-2.9.5-4.3 1.1-1.4.6-3.1 1.5-5.2 2.3-2 .8-4.3 1.4-6.5 1.7-.6.1-1.1.1-1.7.1l-.8.1h-3.8c-1 0-2.1-.2-3.1-.3-1-.2-2.1-.4-3.1-.7-2-.6-4-1.5-5.5-2.4-1.6-.9-2.9-1.6-4.2-2.1-.6-.3-1.3-.5-2-.6-.7-.2-1.4-.3-2-.4l-.5-.1h-.5l-1.2-.1c-.6-.1-1.4 0-2.1-.1-2.9 0-5.3.5-7.8 1.5-1.3.5-2.6 1.1-4.1 1.7-1.4.6-3 .9-4.4 1.2-.7.1-1.5.2-2.2.2-.7 0-1.5.1-2.1.1-.7 0-1.3 0-2-.1s-1.3-.1-1.9-.2c-2.5-.3-4.9-.9-6.9-1.9-2-.9-3.6-2-5.1-2.8-2.9-1.7-5.4-2.4-7.2-2.7-.9-.2-1.6-.2-2.1-.3.3-.2 0-.2 0-.2z" id="Wave10"/>
    <path class="st2" d="M2103.6 1086s.2 0 .7-.1c.5 0 1.2-.1 2.1-.1 1.8 0 4.7.2 8 1.5 1.7.6 3.4 1.4 5.2 1.9 1.9.5 3.9.8 6.1.8.6 0 1.1 0 1.7-.1.6-.1 1.2-.1 1.8-.2.6-.1 1.1-.2 1.7-.3.6-.1 1.1-.3 1.7-.4 1.1-.4 2.2-.8 3.4-1.4 1.1-.6 2.3-1.3 3.7-2 2.8-1.6 6.4-2.7 9.9-3 .4 0 .9-.1 1.3-.1h1.4c.8 0 1.6 0 2.6.1 1 0 1.9.2 2.9.3 1 .2 1.9.4 2.9.7 1.9.6 3.7 1.4 5.2 2.1 1.5.7 2.8 1.2 4.2 1.5 1.4.3 2.8.4 4.4.5h1l1.4-.1h.7c.2 0 .4-.1.5-.1l1-.1c1.5-.3 2.8-.7 4.2-1.3 1.4-.6 3-1.6 5-2.5 2-.9 4.4-1.6 6.6-2 1.1-.1 2.3-.3 3.4-.3h3.2c.4 0 1.1.1 1.7.1.6.1 1.2.1 1.8.2 1.2.2 2.3.4 3.5.8 2.3.7 4.4 1.8 6.1 2.6 1.7.8 2.9 1.3 4.4 1.6.7.1 1.5.3 2.3.3.4 0 .8.1 1.2.1h3.3l.5-.1c.7 0 1.5-.2 2.2-.3 1.5-.3 2.8-.8 4.4-1.6 1.6-.8 3.7-1.9 6.1-2.6 2.3-.7 4.7-1 6.9-1.1h3.3c.8 0 2.2.2 3.4.3 2.3.4 4.6 1.1 6.6 2 2.1.9 3.6 1.9 5 2.5 1.4.6 2.7 1.1 4.2 1.3.8.1 1.5.2 2.3.3H2274.3l1-.1c.7-.1 1.4-.2 2.1-.4 1.4-.3 2.7-.8 4.2-1.5s3.3-1.5 5.2-2.1c3.9-1.2 7.7-1.2 11-.9.8.1 1.8.2 2.7.4.9.2 1.7.4 2.6.6 1.7.5 3.3 1.2 4.7 2 1.4.7 2.6 1.5 3.7 2 1.1.6 2.2 1 3.4 1.4 1.1.3 2.3.6 3.5.7.6.1 1.1.1 1.7.2.6 0 1.2 0 1.8.1 2.2 0 4.2-.3 6.1-.8 1.9-.5 3.6-1.3 5.2-1.9 3.3-1.3 6.2-1.5 8-1.5.9 0 1.6.1 2.1.1s.7.1.7.1-.2 0-.7.1c-.5.1-1.2.1-2.1.3-1.8.3-4.4 1-7.2 2.7-1.5.8-3.1 1.9-5.1 2.8-2 .9-4.4 1.6-7 1.9-.6.1-1.2.1-1.8.2-.7 0-1.4 0-2.1.1-1.4 0-2.8-.1-4.3-.3-1.5-.3-3-.6-4.5-1.2-1.4-.5-2.8-1.2-4.1-1.7-1.3-.5-2.5-.9-3.8-1.2-.6-.2-1.3-.2-2-.3-.3 0-.6 0-1-.1-.3 0-.6-.1-1 0-3 0-5.8.3-8.4 1.3-1.3.5-2.6 1.2-4.1 2.1-1.6.8-3.5 1.8-5.5 2.4-1 .3-2.1.5-3.1.7l-1.6.2c-.3 0-.6.1-.8.1h-.7l-1.4.1h-1.7c-1 0-2.1-.1-3.2-.2-2.2-.3-4.4-.8-6.5-1.7-2.1-.8-3.7-1.8-5.2-2.3-1.4-.6-2.8-.9-4.3-1.1-.7 0-1.3-.2-2.3-.2h-1.3l-1.2.1c-1.6.1-3.1.4-4.5.8-1.4.5-2.8 1.2-4.6 2.1-1.8.9-4.2 1.9-6.6 2.5-1.2.3-2.3.5-3.6.6l-.9.1h-4.1c-.6 0-1.1-.1-1.7-.1-1.2-.1-2.3-.3-3.5-.6-2.4-.5-4.7-1.5-6.6-2.4-1.9-.9-3.3-1.6-4.6-2.1-.7-.2-1.4-.4-2.2-.5-.4-.1-.7-.1-1.1-.2-.4 0-.6-.1-1.2-.1l-1.4-.1h-.2.1-1c-.8 0-1.6.1-2.4.1-1.5.2-2.9.5-4.3 1.1-1.4.6-3.1 1.5-5.2 2.3-2 .8-4.3 1.4-6.5 1.7-.6.1-1.1.1-1.7.1l-.8.1h-3.8c-1 0-2.1-.2-3.1-.3-1-.2-2.1-.4-3.1-.7-2-.6-4-1.5-5.5-2.4-1.6-.9-2.9-1.6-4.2-2.1-.6-.3-1.3-.5-2-.6-.7-.2-1.4-.3-2-.4l-.5-.1h-.5l-1.2-.1c-.6-.1-1.4 0-2.1-.1-2.9 0-5.3.5-7.8 1.5-1.3.5-2.6 1.1-4.1 1.7-1.4.6-3 .9-4.4 1.2-.7.1-1.5.2-2.2.2-.7 0-1.5.1-2.1.1-.7 0-1.3 0-2-.1s-1.3-.1-1.9-.2c-2.5-.3-4.9-.9-6.9-1.9-2-.9-3.6-2-5.1-2.8-2.9-1.7-5.4-2.4-7.2-2.7-.9-.2-1.6-.2-2.1-.3.2-.2 0-.2 0-.2z" id="Wave9"/>
    <path class="st2" d="M1861.7 1129s.2 0 .7-.1c.5 0 1.2-.1 2.1-.1 1.8 0 4.7.2 8 1.5 1.7.6 3.4 1.4 5.2 1.9 1.9.5 3.9.8 6.1.8.6 0 1.1 0 1.7-.1.6-.1 1.2-.1 1.8-.2.6-.1 1.1-.2 1.7-.3.6-.1 1.1-.3 1.7-.4 1.1-.4 2.2-.8 3.4-1.4 1.1-.6 2.3-1.3 3.7-2 2.7-1.6 6.4-2.7 9.9-3 .4 0 .9-.1 1.3-.1h1.4c.8 0 1.6 0 2.6.1 1 0 1.9.2 2.9.3 1 .2 1.9.4 2.9.7 1.9.6 3.7 1.4 5.2 2.1 1.5.7 2.8 1.2 4.2 1.5 1.4.3 2.8.4 4.4.5h1l1.4-.1h.7c.2 0 .3-.1.5-.1l1-.1c1.5-.3 2.8-.7 4.2-1.3 1.4-.6 3-1.6 5-2.5 2-.9 4.4-1.6 6.6-2 1.1-.1 2.3-.3 3.4-.3h3.2c.4 0 1.1.1 1.7.1.6.1 1.2.1 1.8.2 1.2.2 2.3.4 3.5.8 2.3.7 4.4 1.8 6.1 2.6 1.7.8 2.9 1.3 4.4 1.6.7.1 1.5.3 2.3.3.4 0 .8.1 1.2.1h3.3l.5-.1c.7 0 1.5-.2 2.2-.3 1.5-.3 2.8-.8 4.4-1.6 1.6-.8 3.7-1.9 6.1-2.6 2.3-.7 4.7-1 6.9-1.1h3.3c.8 0 2.2.2 3.4.3 2.3.4 4.6 1.1 6.6 2 2.1.9 3.6 1.9 5 2.5 1.4.6 2.7 1.1 4.2 1.3.8.1 1.5.2 2.3.3H2032.4l1-.1c.7-.1 1.4-.2 2.1-.4 1.4-.3 2.7-.8 4.2-1.5s3.3-1.5 5.2-2.1c3.9-1.2 7.7-1.2 11-.9.8.1 1.8.2 2.7.4.9.2 1.7.4 2.6.6 1.7.5 3.3 1.2 4.7 2 1.4.7 2.6 1.5 3.7 2 1.1.6 2.2 1 3.4 1.4 1.1.3 2.3.6 3.5.7.6.1 1.1.1 1.7.2.6 0 1.2 0 1.8.1 2.2 0 4.2-.3 6.1-.8 1.9-.5 3.6-1.3 5.2-1.9 3.3-1.3 6.2-1.5 8-1.5.9 0 1.6.1 2.1.1s.7.1.7.1-.2 0-.7.1c-.5.1-1.2.1-2.1.3-1.8.3-4.4 1-7.2 2.7-1.5.8-3.1 1.9-5.1 2.8-2 .9-4.4 1.6-7 1.9-.6.1-1.2.1-1.8.2-.7 0-1.4 0-2.1.1-1.4 0-2.8-.1-4.3-.3-1.5-.3-3-.6-4.5-1.2-1.4-.5-2.8-1.2-4.1-1.7-1.3-.5-2.5-.9-3.8-1.2-.6-.2-1.3-.2-2-.3-.3 0-.6 0-1-.1-.3 0-.6-.1-1 0-3 0-5.8.3-8.4 1.3-1.3.5-2.6 1.2-4.1 2.1-1.6.8-3.5 1.8-5.5 2.4-1 .3-2.1.5-3.1.7l-1.6.2c-.3 0-.6.1-.8.1h-.7l-1.4.1h-1.7c-1 0-2.1-.1-3.2-.2-2.2-.3-4.4-.8-6.5-1.7-2.1-.8-3.7-1.8-5.2-2.3-1.4-.6-2.8-.9-4.3-1.1-.7 0-1.3-.2-2.3-.2h-1.3l-1.2.1c-1.6.1-3.1.4-4.5.8-1.4.5-2.8 1.2-4.6 2.1-1.8.9-4.2 1.9-6.6 2.5-1.2.3-2.3.5-3.6.6l-.9.1h-4.1c-.6 0-1.1-.1-1.7-.1-1.2-.1-2.3-.3-3.5-.6-2.4-.5-4.7-1.5-6.6-2.4-1.9-.9-3.3-1.6-4.6-2.1-.7-.2-1.4-.4-2.2-.5-.4-.1-.7-.1-1.1-.2-.4 0-.6-.1-1.2-.1l-1.4-.1h-.2.1-1c-.8 0-1.6.1-2.4.1-1.5.2-2.9.5-4.3 1.1-1.4.6-3.1 1.5-5.2 2.3-2 .8-4.3 1.4-6.5 1.7-.6.1-1.1.1-1.7.1l-.8.1h-3.8c-1 0-2.1-.2-3.1-.3-1-.2-2.1-.4-3.1-.7-2-.6-4-1.5-5.5-2.4-1.6-.9-2.9-1.6-4.2-2.1-.6-.3-1.3-.5-2-.6-.7-.2-1.4-.3-2-.4l-.5-.1h-.5l-1.2-.1c-.6-.1-1.4 0-2.1-.1-2.9 0-5.3.5-7.8 1.5-1.3.5-2.6 1.1-4.1 1.7-1.4.6-3 .9-4.4 1.2-.7.1-1.5.2-2.2.2-.7 0-1.5.1-2.1.1-.7 0-1.3 0-2-.1s-1.3-.1-1.9-.2c-2.5-.3-4.9-.9-6.9-1.9-2-.9-3.6-2-5.1-2.8-2.9-1.7-5.4-2.4-7.2-2.7-.9-.2-1.6-.2-2.1-.3.2-.2 0-.2 0-.2z" id="Wave8"/>
    <path class="st2" d="M1621 1086s.2 0 .7-.1c.5 0 1.2-.1 2.1-.1 1.8 0 4.7.2 8 1.5 1.7.6 3.4 1.4 5.2 1.9 1.9.5 3.9.8 6.1.8.6 0 1.1 0 1.7-.1.6-.1 1.2-.1 1.8-.2.6-.1 1.1-.2 1.7-.3.6-.1 1.1-.3 1.7-.4 1.1-.4 2.2-.8 3.4-1.4 1.1-.6 2.3-1.3 3.7-2 2.7-1.6 6.4-2.7 9.9-3 .4 0 .9-.1 1.3-.1h1.4c.8 0 1.6 0 2.6.1 1 0 1.9.2 2.9.3 1 .2 1.9.4 2.9.7 1.9.6 3.7 1.4 5.2 2.1 1.5.7 2.8 1.2 4.2 1.5 1.4.3 2.8.4 4.4.5h1l1.4-.1h.7c.2 0 .3-.1.5-.1l1-.1c1.5-.3 2.8-.7 4.2-1.3 1.4-.6 3-1.6 5-2.5 2-.9 4.4-1.6 6.6-2 1.1-.1 2.3-.3 3.4-.3h3.2c.4 0 1.1.1 1.7.1.6.1 1.2.1 1.8.2 1.2.2 2.3.4 3.5.8 2.3.7 4.4 1.8 6.1 2.6 1.7.8 2.9 1.3 4.4 1.6.7.1 1.5.3 2.3.3.4 0 .8.1 1.2.1h3.3l.5-.1c.7 0 1.5-.2 2.2-.3 1.5-.3 2.8-.8 4.4-1.6 1.6-.8 3.7-1.9 6.1-2.6 2.3-.7 4.7-1 6.9-1.1h3.3c.8 0 2.2.2 3.4.3 2.3.4 4.6 1.1 6.6 2 2.1.9 3.6 1.9 5 2.5 1.4.6 2.7 1.1 4.2 1.3.8.1 1.5.2 2.3.3H1791.7l1-.1c.7-.1 1.4-.2 2.1-.4 1.4-.3 2.7-.8 4.2-1.5s3.3-1.5 5.2-2.1c3.9-1.2 7.7-1.2 11-.9.8.1 1.8.2 2.7.4.9.2 1.7.4 2.6.6 1.7.5 3.3 1.2 4.7 2 1.4.7 2.6 1.5 3.7 2 1.1.6 2.2 1 3.4 1.4 1.1.3 2.3.6 3.5.7.6.1 1.1.1 1.7.2.6 0 1.2 0 1.8.1 2.2 0 4.2-.3 6.1-.8 1.9-.5 3.6-1.3 5.2-1.9 3.3-1.3 6.2-1.5 8-1.5.9 0 1.6.1 2.1.1s.7.1.7.1-.2 0-.7.1c-.5.1-1.2.1-2.1.3-1.8.3-4.4 1-7.2 2.7-1.5.8-3.1 1.9-5.1 2.8-2 .9-4.4 1.6-7 1.9-.6.1-1.2.1-1.8.2-.7 0-1.4 0-2.1.1-1.4 0-2.8-.1-4.3-.3-1.5-.3-3-.6-4.5-1.2-1.4-.5-2.8-1.2-4.1-1.7-1.3-.5-2.5-.9-3.8-1.2-.6-.2-1.3-.2-2-.3-.3 0-.6 0-1-.1-.3 0-.6-.1-1 0-3 0-5.8.3-8.4 1.3-1.3.5-2.6 1.2-4.1 2.1-1.6.8-3.5 1.8-5.5 2.4-1 .3-2.1.5-3.1.7l-1.6.2c-.3 0-.6.1-.8.1h-.7l-1.4.1h-1.7c-1 0-2.1-.1-3.2-.2-2.2-.3-4.4-.8-6.5-1.7-2.1-.8-3.7-1.8-5.2-2.3-1.4-.6-2.8-.9-4.3-1.1-.7 0-1.3-.2-2.3-.2h-1.3l-1.2.1c-1.6.1-3.1.4-4.5.8-1.4.5-2.8 1.2-4.6 2.1-1.8.9-4.2 1.9-6.6 2.5-1.2.3-2.3.5-3.6.6l-.9.1h-4.1c-.6 0-1.1-.1-1.7-.1-1.2-.1-2.3-.3-3.5-.6-2.4-.5-4.7-1.5-6.6-2.4-1.9-.9-3.3-1.6-4.6-2.1-.7-.2-1.4-.4-2.2-.5-.4-.1-.7-.1-1.1-.2-.4 0-.6-.1-1.2-.1l-1.4-.1h-.2.1-1c-.8 0-1.6.1-2.4.1-1.5.2-2.9.5-4.3 1.1-1.4.6-3.1 1.5-5.2 2.3-2 .8-4.3 1.4-6.5 1.7-.6.1-1.1.1-1.7.1l-.8.1h-3.8c-1 0-2.1-.2-3.1-.3-1-.2-2.1-.4-3.1-.7-2-.6-4-1.5-5.5-2.4-1.6-.9-2.9-1.6-4.2-2.1-.6-.3-1.3-.5-2-.6-.7-.2-1.4-.3-2-.4l-.5-.1h-.5l-1.2-.1c-.6-.1-1.4 0-2.1-.1-2.9 0-5.3.5-7.8 1.5-1.3.5-2.6 1.1-4.1 1.7-1.4.6-3 .9-4.4 1.2-.7.1-1.5.2-2.2.2-.7 0-1.5.1-2.1.1-.7 0-1.3 0-2-.1s-1.3-.1-1.9-.2c-2.5-.3-4.9-.9-6.9-1.9-2-.9-3.6-2-5.1-2.8-2.9-1.7-5.4-2.4-7.2-2.7-.9-.2-1.6-.2-2.1-.3.2-.2 0-.2 0-.2z" id="Wave7"/>
    <path class="st2" d="M1379 1129s.2 0 .7-.1c.5 0 1.2-.1 2.1-.1 1.8 0 4.7.2 8 1.5 1.7.6 3.4 1.4 5.2 1.9 1.9.5 3.9.8 6.1.8.6 0 1.1 0 1.7-.1.6-.1 1.2-.1 1.8-.2.6-.1 1.1-.2 1.7-.3.6-.1 1.1-.3 1.7-.4 1.1-.4 2.2-.8 3.4-1.4 1.1-.6 2.3-1.3 3.7-2 2.8-1.6 6.4-2.7 9.9-3 .4 0 .9-.1 1.3-.1h1.4c.8 0 1.6 0 2.6.1 1 0 1.9.2 2.9.3 1 .2 1.9.4 2.9.7 1.9.6 3.7 1.4 5.2 2.1 1.5.7 2.8 1.2 4.2 1.5 1.4.3 2.8.4 4.4.5h1l1.4-.1h.7c.2 0 .3-.1.5-.1l1-.1c1.5-.3 2.8-.7 4.2-1.3 1.4-.6 3-1.6 5-2.5 2-.9 4.4-1.6 6.6-2 1.1-.1 2.3-.3 3.4-.3h3.2c.4 0 1.1.1 1.7.1.6.1 1.2.1 1.8.2 1.2.2 2.3.4 3.5.8 2.3.7 4.4 1.8 6.1 2.6 1.7.8 2.9 1.3 4.4 1.6.7.1 1.5.3 2.3.3.4 0 .8.1 1.2.1h3.3l.5-.1c.7 0 1.5-.2 2.2-.3 1.5-.3 2.8-.8 4.4-1.6 1.6-.8 3.7-1.9 6.1-2.6 2.3-.7 4.7-1 6.9-1.1h3.3c.8 0 2.2.2 3.4.3 2.3.4 4.6 1.1 6.6 2 2.1.9 3.6 1.9 5 2.5 1.4.6 2.7 1.1 4.2 1.3.8.1 1.5.2 2.3.3H1549.7l1-.1c.7-.1 1.4-.2 2.1-.4 1.4-.3 2.7-.8 4.2-1.5s3.3-1.5 5.2-2.1c3.9-1.2 7.7-1.2 11-.9.8.1 1.8.2 2.7.4.9.2 1.7.4 2.6.6 1.7.5 3.3 1.2 4.7 2 1.4.7 2.6 1.5 3.7 2 1.1.6 2.2 1 3.4 1.4 1.1.3 2.3.6 3.5.7.6.1 1.1.1 1.7.2.6 0 1.2 0 1.8.1 2.2 0 4.2-.3 6.1-.8 1.9-.5 3.6-1.3 5.2-1.9 3.3-1.3 6.2-1.5 8-1.5.9 0 1.6.1 2.1.1s.7.1.7.1-.2 0-.7.1c-.5.1-1.2.1-2.1.3-1.8.3-4.4 1-7.2 2.7-1.5.8-3.1 1.9-5.1 2.8-2 .9-4.4 1.6-7 1.9-.6.1-1.2.1-1.8.2-.7 0-1.4 0-2.1.1-1.4 0-2.8-.1-4.3-.3-1.5-.3-3-.6-4.5-1.2-1.4-.5-2.8-1.2-4.1-1.7-1.3-.5-2.5-.9-3.8-1.2-.6-.2-1.3-.2-2-.3-.3 0-.6 0-1-.1-.3 0-.6-.1-1 0-3 0-5.8.3-8.4 1.3-1.3.5-2.6 1.2-4.1 2.1-1.6.8-3.5 1.8-5.5 2.4-1 .3-2.1.5-3.1.7l-1.6.2c-.3 0-.6.1-.8.1h-.7l-1.4.1h-1.7c-1 0-2.1-.1-3.2-.2-2.2-.3-4.4-.8-6.5-1.7-2.1-.8-3.7-1.8-5.2-2.3-1.4-.6-2.8-.9-4.3-1.1-.7 0-1.3-.2-2.3-.2h-1.3l-1.2.1c-1.6.1-3.1.4-4.5.8-1.4.5-2.8 1.2-4.6 2.1-1.8.9-4.2 1.9-6.6 2.5-1.2.3-2.3.5-3.6.6l-.9.1h-4.1c-.6 0-1.1-.1-1.7-.1-1.2-.1-2.3-.3-3.5-.6-2.4-.5-4.7-1.5-6.6-2.4-1.9-.9-3.3-1.6-4.6-2.1-.7-.2-1.4-.4-2.2-.5-.4-.1-.7-.1-1.1-.2-.4 0-.6-.1-1.2-.1l-1.4-.1h-.2.1-1c-.8 0-1.6.1-2.4.1-1.5.2-2.9.5-4.3 1.1-1.4.6-3.1 1.5-5.2 2.3-2 .8-4.3 1.4-6.5 1.7-.6.1-1.1.1-1.7.1l-.8.1h-3.8c-1 0-2.1-.2-3.1-.3-1-.2-2.1-.4-3.1-.7-2-.6-4-1.5-5.5-2.4-1.6-.9-2.9-1.6-4.2-2.1-.6-.3-1.3-.5-2-.6-.7-.2-1.4-.3-2-.4l-.5-.1h-.5l-1.2-.1c-.6-.1-1.4 0-2.1-.1-2.9 0-5.3.5-7.8 1.5-1.3.5-2.6 1.1-4.1 1.7-1.4.6-3 .9-4.4 1.2-.7.1-1.5.2-2.2.2-.7 0-1.5.1-2.1.1-.7 0-1.3 0-2-.1s-1.3-.1-1.9-.2c-2.5-.3-4.9-.9-6.9-1.9-2-.9-3.6-2-5.1-2.8-2.9-1.7-5.4-2.4-7.2-2.7-.9-.2-1.6-.2-2.1-.3.3-.2 0-.2 0-.2z" id="Wave6"/>
    <path class="st2" d="M1138.3 1086s.2 0 .7-.1c.5 0 1.2-.1 2.1-.1 1.8 0 4.7.2 8 1.5 1.7.6 3.4 1.4 5.2 1.9 1.9.5 3.9.8 6.1.8.6 0 1.1 0 1.7-.1.6-.1 1.2-.1 1.8-.2.6-.1 1.1-.2 1.7-.3.6-.1 1.1-.3 1.7-.4 1.1-.4 2.2-.8 3.4-1.4 1.1-.6 2.3-1.3 3.7-2 2.8-1.6 6.4-2.7 9.9-3 .4 0 .9-.1 1.3-.1h1.4c.8 0 1.6 0 2.6.1 1 0 1.9.2 2.9.3 1 .2 1.9.4 2.9.7 1.9.6 3.7 1.4 5.2 2.1 1.5.7 2.8 1.2 4.2 1.5 1.4.3 2.8.4 4.4.5h1l1.4-.1h.7c.2 0 .3-.1.5-.1l1-.1c1.5-.3 2.8-.7 4.2-1.3 1.4-.6 3-1.6 5-2.5 2-.9 4.4-1.6 6.6-2 1.1-.1 2.3-.3 3.4-.3h3.2c.4 0 1.1.1 1.7.1.6.1 1.2.1 1.8.2 1.2.2 2.3.4 3.5.8 2.3.7 4.4 1.8 6.1 2.6 1.7.8 2.9 1.3 4.4 1.6.7.1 1.5.3 2.3.3.4 0 .8.1 1.2.1h3.3l.5-.1c.7 0 1.5-.2 2.2-.3 1.5-.3 2.8-.8 4.4-1.6 1.6-.8 3.7-1.9 6.1-2.6 2.3-.7 4.7-1 6.9-1.1h3.3c.8 0 2.2.2 3.4.3 2.3.4 4.6 1.1 6.6 2 2.1.9 3.6 1.9 5 2.5 1.4.6 2.7 1.1 4.2 1.3.8.1 1.5.2 2.3.3H1309l1-.1c.7-.1 1.4-.2 2.1-.4 1.4-.3 2.7-.8 4.2-1.5s3.3-1.5 5.2-2.1c3.9-1.2 7.7-1.2 11-.9.8.1 1.8.2 2.7.4.9.2 1.7.4 2.6.6 1.7.5 3.3 1.2 4.7 2 1.4.7 2.6 1.5 3.7 2 1.1.6 2.2 1 3.4 1.4 1.1.3 2.3.6 3.5.7.6.1 1.1.1 1.7.2.6 0 1.2 0 1.8.1 2.2 0 4.2-.3 6.1-.8 1.9-.5 3.6-1.3 5.2-1.9 3.3-1.3 6.2-1.5 8-1.5.9 0 1.6.1 2.1.1s.7.1.7.1-.2 0-.7.1c-.5.1-1.2.1-2.1.3-1.8.3-4.4 1-7.2 2.7-1.5.8-3.1 1.9-5.1 2.8-2 .9-4.4 1.6-7 1.9-.6.1-1.2.1-1.8.2-.7 0-1.4 0-2.1.1-1.4 0-2.8-.1-4.3-.3-1.5-.3-3-.6-4.5-1.2-1.4-.5-2.8-1.2-4.1-1.7-1.3-.5-2.5-.9-3.8-1.2-.6-.2-1.3-.2-2-.3-.3 0-.6 0-1-.1-.3 0-.6-.1-1 0-3 0-5.8.3-8.4 1.3-1.3.5-2.6 1.2-4.1 2.1-1.6.8-3.5 1.8-5.5 2.4-1 .3-2.1.5-3.1.7l-1.6.2c-.3 0-.6.1-.8.1h-.7l-1.4.1h-1.7c-1 0-2.1-.1-3.2-.2-2.2-.3-4.4-.8-6.5-1.7-2.1-.8-3.7-1.8-5.2-2.3-1.4-.6-2.8-.9-4.3-1.1-.7 0-1.3-.2-2.3-.2h-1.3l-1.2.1c-1.6.1-3.1.4-4.5.8-1.4.5-2.8 1.2-4.6 2.1-1.8.9-4.2 1.9-6.6 2.5-1.2.3-2.3.5-3.6.6l-.9.1h-4.1c-.6 0-1.1-.1-1.7-.1-1.2-.1-2.3-.3-3.5-.6-2.4-.5-4.7-1.5-6.6-2.4-1.9-.9-3.3-1.6-4.6-2.1-.7-.2-1.4-.4-2.2-.5-.4-.1-.7-.1-1.1-.2-.4 0-.6-.1-1.2-.1l-1.4-.1h-.2.1-1c-.8 0-1.6.1-2.4.1-1.5.2-2.9.5-4.3 1.1-1.4.6-3.1 1.5-5.2 2.3-2 .8-4.3 1.4-6.5 1.7-.6.1-1.1.1-1.7.1l-.8.1h-3.8c-1 0-2.1-.2-3.1-.3-1-.2-2.1-.4-3.1-.7-2-.6-4-1.5-5.5-2.4-1.6-.9-2.9-1.6-4.2-2.1-.6-.3-1.3-.5-2-.6-.7-.2-1.4-.3-2-.4l-.5-.1h-.5l-1.2-.1c-.6-.1-1.4 0-2.1-.1-2.9 0-5.3.5-7.8 1.5-1.3.5-2.6 1.1-4.1 1.7-1.4.6-3 .9-4.4 1.2-.7.1-1.5.2-2.2.2-.7 0-1.5.1-2.1.1-.7 0-1.3 0-2-.1s-1.3-.1-1.9-.2c-2.5-.3-4.9-.9-6.9-1.9-2-.9-3.6-2-5.1-2.8-2.9-1.7-5.4-2.4-7.2-2.7-.9-.2-1.6-.2-2.1-.3.3-.2 0-.2 0-.2z" id="Wave5"/>
    <path class="st2" d="M896.4 1129s.2 0 .7-.1c.5 0 1.2-.1 2.1-.1 1.8 0 4.7.2 8 1.5 1.7.6 3.4 1.4 5.2 1.9 1.9.5 3.9.8 6.1.8.6 0 1.1 0 1.7-.1.6-.1 1.2-.1 1.8-.2.6-.1 1.1-.2 1.7-.3.6-.1 1.1-.3 1.7-.4 1.1-.4 2.2-.8 3.4-1.4 1.1-.6 2.3-1.3 3.7-2 2.7-1.6 6.4-2.7 9.9-3 .4 0 .9-.1 1.3-.1h1.4c.8 0 1.6 0 2.6.1 1 0 1.9.2 2.9.3 1 .2 1.9.4 2.9.7 1.9.6 3.7 1.4 5.2 2.1 1.5.7 2.8 1.2 4.2 1.5 1.4.3 2.8.4 4.4.5h1l1.4-.1h.7c.2 0 .3-.1.5-.1l1-.1c1.5-.3 2.8-.7 4.2-1.3 1.4-.6 3-1.6 5-2.5 2-.9 4.4-1.6 6.6-2 1.1-.1 2.3-.3 3.4-.3h3.2c.4 0 1.1.1 1.7.1.6.1 1.2.1 1.8.2 1.2.2 2.3.4 3.5.8 2.3.7 4.4 1.8 6.1 2.6 1.7.8 2.9 1.3 4.4 1.6.7.1 1.5.3 2.3.3.4 0 .8.1 1.2.1h3.3l.5-.1c.7 0 1.5-.2 2.2-.3 1.5-.3 2.8-.8 4.4-1.6 1.6-.8 3.7-1.9 6.1-2.6 2.3-.7 4.7-1 6.9-1.1h3.3c.8 0 2.2.2 3.4.3 2.3.4 4.6 1.1 6.6 2 2.1.9 3.6 1.9 5 2.5 1.4.6 2.7 1.1 4.2 1.3.8.1 1.5.2 2.3.3H1067.1l1-.1c.7-.1 1.4-.2 2.1-.4 1.4-.3 2.7-.8 4.2-1.5s3.3-1.5 5.2-2.1c3.9-1.2 7.7-1.2 11-.9.8.1 1.8.2 2.7.4.9.2 1.7.4 2.6.6 1.7.5 3.3 1.2 4.7 2 1.4.7 2.6 1.5 3.7 2 1.1.6 2.2 1 3.4 1.4 1.1.3 2.3.6 3.5.7.6.1 1.1.1 1.7.2.6 0 1.2 0 1.8.1 2.2 0 4.2-.3 6.1-.8 1.9-.5 3.6-1.3 5.2-1.9 3.3-1.3 6.2-1.5 8-1.5.9 0 1.6.1 2.1.1s.7.1.7.1-.2 0-.7.1c-.5.1-1.2.1-2.1.3-1.8.3-4.4 1-7.2 2.7-1.5.8-3.1 1.9-5.1 2.8-2 .9-4.4 1.6-7 1.9-.6.1-1.2.1-1.8.2-.7 0-1.4 0-2.1.1-1.4 0-2.8-.1-4.3-.3-1.5-.3-3-.6-4.5-1.2-1.4-.5-2.8-1.2-4.1-1.7-1.3-.5-2.5-.9-3.8-1.2-.6-.2-1.3-.2-2-.3-.3 0-.6 0-1-.1-.3 0-.6-.1-1 0-3 0-5.8.3-8.4 1.3-1.3.5-2.6 1.2-4.1 2.1-1.6.8-3.5 1.8-5.5 2.4-1 .3-2.1.5-3.1.7l-1.6.2c-.3 0-.6.1-.8.1h-.7l-1.4.1h-1.7c-1 0-2.1-.1-3.2-.2-2.2-.3-4.4-.8-6.5-1.7-2.1-.8-3.7-1.8-5.2-2.3-1.4-.6-2.8-.9-4.3-1.1-.7 0-1.3-.2-2.3-.2h-1.3l-1.2.1c-1.6.1-3.1.4-4.5.8-1.4.5-2.8 1.2-4.6 2.1-1.8.9-4.2 1.9-6.6 2.5-1.2.3-2.3.5-3.6.6l-.9.1h-4.1c-.6 0-1.1-.1-1.7-.1-1.2-.1-2.3-.3-3.5-.6-2.4-.5-4.7-1.5-6.6-2.4-1.9-.9-3.3-1.6-4.6-2.1-.7-.2-1.4-.4-2.2-.5-.4-.1-.7-.1-1.1-.2-.4 0-.6-.1-1.2-.1l-1.4-.1h-.2.1-1c-.8 0-1.6.1-2.4.1-1.5.2-2.9.5-4.3 1.1-1.4.6-3.1 1.5-5.2 2.3-2 .8-4.3 1.4-6.5 1.7-.6.1-1.1.1-1.7.1l-.8.1h-3.8c-1 0-2.1-.2-3.1-.3-1-.2-2.1-.4-3.1-.7-2-.6-4-1.5-5.5-2.4-1.6-.9-2.9-1.6-4.2-2.1-.6-.3-1.3-.5-2-.6-.7-.2-1.4-.3-2-.4l-.5-.1h-.5l-1.2-.1c-.6-.1-1.4 0-2.1-.1-2.9 0-5.3.5-7.8 1.5-1.3.5-2.6 1.1-4.1 1.7-1.4.6-3 .9-4.4 1.2-.7.1-1.5.2-2.2.2-.7 0-1.5.1-2.1.1-.7 0-1.3 0-2-.1s-1.3-.1-1.9-.2c-2.5-.3-4.9-.9-6.9-1.9-2-.9-3.6-2-5.1-2.8-2.9-1.7-5.4-2.4-7.2-2.7-.9-.2-1.6-.2-2.1-.3.2-.2 0-.2 0-.2z" id="Wave4"/>
    <path class="st2" d="M655.7 1086s.2 0 .7-.1c.5 0 1.2-.1 2.1-.1 1.8 0 4.7.2 8 1.5 1.7.6 3.4 1.4 5.2 1.9 1.9.5 3.9.8 6.1.8.6 0 1.1 0 1.7-.1.6-.1 1.2-.1 1.8-.2.6-.1 1.1-.2 1.7-.3.6-.1 1.1-.3 1.7-.4 1.1-.4 2.2-.8 3.4-1.4 1.1-.6 2.3-1.3 3.7-2 2.7-1.6 6.4-2.7 9.9-3 .4 0 .9-.1 1.3-.1h1.4c.8 0 1.6 0 2.6.1 1 0 1.9.2 2.9.3 1 .2 1.9.4 2.9.7 1.9.6 3.7 1.4 5.2 2.1 1.5.7 2.8 1.2 4.2 1.5 1.4.3 2.8.4 4.4.5h1l1.4-.1h.7c.2 0 .3-.1.5-.1l1-.1c1.5-.3 2.8-.7 4.2-1.3 1.4-.6 3-1.6 5-2.5 2-.9 4.4-1.6 6.6-2 1.1-.1 2.3-.3 3.4-.3h3.2c.4 0 1.1.1 1.7.1.6.1 1.2.1 1.8.2 1.2.2 2.3.4 3.5.8 2.3.7 4.4 1.8 6.1 2.6 1.7.8 2.9 1.3 4.4 1.6.7.1 1.5.3 2.3.3.4 0 .8.1 1.2.1h3.3l.5-.1c.7 0 1.5-.2 2.2-.3 1.5-.3 2.8-.8 4.4-1.6 1.6-.8 3.7-1.9 6.1-2.6 2.3-.7 4.7-1 6.9-1.1h3.3c.8 0 2.2.2 3.4.3 2.3.4 4.6 1.1 6.6 2 2.1.9 3.6 1.9 5 2.5 1.4.6 2.7 1.1 4.2 1.3.8.1 1.5.2 2.3.3H826.4l1-.1c.7-.1 1.4-.2 2.1-.4 1.4-.3 2.7-.8 4.2-1.5s3.3-1.5 5.2-2.1c3.9-1.2 7.7-1.2 11-.9.8.1 1.8.2 2.7.4.9.2 1.7.4 2.6.6 1.7.5 3.3 1.2 4.7 2 1.4.7 2.6 1.5 3.7 2 1.1.6 2.2 1 3.4 1.4 1.1.3 2.3.6 3.5.7.6.1 1.1.1 1.7.2.6 0 1.2 0 1.8.1 2.2 0 4.2-.3 6.1-.8 1.9-.5 3.6-1.3 5.2-1.9 3.3-1.3 6.2-1.5 8-1.5.9 0 1.6.1 2.1.1s.7.1.7.1-.2 0-.7.1c-.5.1-1.2.1-2.1.3-1.8.3-4.4 1-7.2 2.7-1.5.8-3.1 1.9-5.1 2.8-2 .9-4.4 1.6-7 1.9-.6.1-1.2.1-1.8.2-.7 0-1.4 0-2.1.1-1.4 0-2.8-.1-4.3-.3-1.5-.3-3-.6-4.5-1.2-1.4-.5-2.8-1.2-4.1-1.7-1.3-.5-2.5-.9-3.8-1.2-.6-.2-1.3-.2-2-.3-.3 0-.6 0-1-.1-.3 0-.6-.1-1 0-3 0-5.8.3-8.4 1.3-1.3.5-2.6 1.2-4.1 2.1-1.6.8-3.5 1.8-5.5 2.4-1 .3-2.1.5-3.1.7l-1.6.2c-.3 0-.6.1-.8.1h-.7l-1.4.1h-1.7c-1 0-2.1-.1-3.2-.2-2.2-.3-4.4-.8-6.5-1.7-2.1-.8-3.7-1.8-5.2-2.3-1.4-.6-2.8-.9-4.3-1.1-.7 0-1.3-.2-2.3-.2h-1.3l-1.2.1c-1.6.1-3.1.4-4.5.8-1.4.5-2.8 1.2-4.6 2.1-1.8.9-4.2 1.9-6.5 2.5-1.2.3-2.3.5-3.6.6l-.9.1h-4.1c-.6 0-1.1-.1-1.7-.1-1.2-.1-2.3-.3-3.5-.6-2.4-.5-4.7-1.5-6.6-2.4-1.9-.9-3.3-1.6-4.6-2.1-.7-.2-1.4-.4-2.2-.5-.4-.1-.7-.1-1.1-.2-.4 0-.6-.1-1.2-.1l-1.4-.1h-.2.1-1c-.8 0-1.6.1-2.4.1-1.5.2-2.9.5-4.3 1.1-1.4.6-3.1 1.5-5.2 2.3-2 .8-4.3 1.4-6.5 1.7-.6.1-1.1.1-1.7.1l-.8.1h-3.8c-1 0-2.1-.2-3.1-.3-1-.2-2.1-.4-3.1-.7-2-.6-4-1.5-5.5-2.4-1.6-.9-2.9-1.6-4.2-2.1-.6-.3-1.3-.5-2-.6-.7-.2-1.4-.3-2-.4l-.5-.1h-.5l-1.2-.1c-.6-.1-1.4 0-2.1-.1-2.9 0-5.3.5-7.8 1.5-1.3.5-2.6 1.1-4.1 1.7-1.4.6-3 .9-4.4 1.2-.7.1-1.5.2-2.2.2-.7 0-1.5.1-2.1.1-.7 0-1.3 0-2-.1s-1.3-.1-1.9-.2c-2.5-.3-4.9-.9-6.9-1.9-2-.9-3.6-2-5.1-2.8-2.9-1.7-5.4-2.4-7.2-2.7-.9-.2-1.6-.2-2.1-.3.1-.2-.1-.2-.1-.2z" id="Wave3"/>
    <path class="st2" d="M413.8 1129s.2 0 .7-.1c.5 0 1.2-.1 2.1-.1 1.8 0 4.7.2 8 1.5 1.7.6 3.4 1.4 5.2 1.9 1.9.5 3.9.8 6.1.8.6 0 1.1 0 1.7-.1.6-.1 1.2-.1 1.8-.2.6-.1 1.1-.2 1.7-.3.6-.1 1.1-.3 1.7-.4 1.1-.4 2.2-.8 3.4-1.4 1.1-.6 2.3-1.3 3.7-2 2.7-1.6 6.4-2.7 9.9-3 .4 0 .9-.1 1.3-.1h1.4c.8 0 1.6 0 2.6.1 1 0 1.9.2 2.9.3 1 .2 1.9.4 2.9.7 1.9.6 3.7 1.4 5.2 2.1 1.5.7 2.8 1.2 4.2 1.5 1.4.3 2.8.4 4.4.5h1l1.4-.1h.7c.2 0 .4-.1.5-.1l1-.1c1.5-.3 2.8-.7 4.2-1.3 1.4-.6 3-1.6 5-2.5 2-.9 4.4-1.6 6.6-2 1.1-.1 2.3-.3 3.4-.3h3.2c.4 0 1.1.1 1.7.1.6.1 1.2.1 1.8.2 1.2.2 2.3.4 3.5.8 2.3.7 4.4 1.8 6.1 2.6 1.7.8 2.9 1.3 4.4 1.6.7.1 1.5.3 2.3.3.4 0 .8.1 1.2.1h3.3l.5-.1c.7 0 1.5-.2 2.2-.3 1.5-.3 2.8-.8 4.4-1.6 1.6-.8 3.7-1.9 6.1-2.6 2.3-.7 4.7-1 6.9-1.1h3.3c.8 0 2.2.2 3.4.3 2.3.4 4.6 1.1 6.6 2 2.1.9 3.6 1.9 5 2.5 1.4.6 2.7 1.1 4.2 1.3.8.1 1.5.2 2.3.3H584.5l1-.1c.7-.1 1.4-.2 2.1-.4 1.4-.3 2.7-.8 4.2-1.5s3.3-1.5 5.2-2.1c3.9-1.2 7.7-1.2 11-.9.8.1 1.8.2 2.7.4.9.2 1.7.4 2.6.6 1.7.5 3.3 1.2 4.7 2 1.4.7 2.6 1.5 3.7 2 1.1.6 2.2 1 3.4 1.4 1.1.3 2.3.6 3.5.7.6.1 1.1.1 1.7.2.6 0 1.2 0 1.8.1 2.2 0 4.2-.3 6.1-.8 1.9-.5 3.6-1.3 5.2-1.9 3.3-1.3 6.2-1.5 8-1.5.9 0 1.6.1 2.1.1s.7.1.7.1-.2 0-.7.1c-.5.1-1.2.1-2.1.3-1.8.3-4.4 1-7.2 2.7-1.5.8-3.1 1.9-5.1 2.8-2 .9-4.4 1.6-7 1.9-.6.1-1.2.1-1.8.2-.7 0-1.4 0-2.1.1-1.4 0-2.8-.1-4.3-.3-1.5-.3-3-.6-4.5-1.2-1.4-.5-2.8-1.2-4.1-1.7-1.3-.5-2.5-.9-3.8-1.2-.6-.2-1.3-.2-2-.3-.3 0-.6 0-1-.1-.3 0-.6-.1-1 0-3 0-5.8.3-8.4 1.3-1.3.5-2.6 1.2-4.1 2.1-1.6.8-3.5 1.8-5.5 2.4-1 .3-2.1.5-3.1.7l-1.6.2c-.3 0-.6.1-.8.1h-.7l-1.4.1h-1.7c-1 0-2.1-.1-3.2-.2-2.2-.3-4.4-.8-6.5-1.7-2.1-.8-3.7-1.8-5.2-2.3-1.4-.6-2.8-.9-4.3-1.1-.7 0-1.3-.2-2.3-.2h-1.3l-1.2.1c-1.6.1-3.1.4-4.5.8-1.4.5-2.8 1.2-4.6 2.1-1.8.9-4.2 1.9-6.5 2.5-1.2.3-2.3.5-3.6.6l-.9.1H532c-.6 0-1.1-.1-1.7-.1-1.2-.1-2.3-.3-3.5-.6-2.4-.5-4.7-1.5-6.6-2.4-1.9-.9-3.3-1.6-4.6-2.1-.7-.2-1.4-.4-2.2-.5-.4-.1-.7-.1-1.1-.2-.4 0-.6-.1-1.2-.1l-1.4-.1h-.2.1-1c-.8 0-1.6.1-2.4.1-1.5.2-2.9.5-4.3 1.1-1.4.6-3.1 1.5-5.2 2.3-2 .8-4.3 1.4-6.5 1.7-.6.1-1.1.1-1.7.1l-.8.1h-3.8c-1 0-2.1-.2-3.1-.3-1-.2-2.1-.4-3.1-.7-2-.6-4-1.5-5.5-2.4-1.6-.9-2.9-1.6-4.2-2.1-.6-.3-1.3-.5-2-.6-.7-.2-1.4-.3-2-.4l-.5-.1h-.5l-1.2-.1c-.6-.1-1.4 0-2.1-.1-2.9 0-5.3.5-7.8 1.5-1.3.5-2.6 1.1-4.1 1.7-1.4.6-3 .9-4.4 1.2-.7.1-1.5.2-2.2.2-.7 0-1.5.1-2.1.1-.7 0-1.3 0-2-.1s-1.3-.1-1.9-.2c-2.5-.3-4.9-.9-6.9-1.9-2-.9-3.6-2-5.1-2.8-2.9-1.7-5.4-2.4-7.2-2.7-.9-.2-1.6-.2-2.1-.3.1-.2-.1-.2-.1-.2z" id="Wave2"/>
    <path class="st2" d="M173.1 1086s.2 0 .7-.1c.5 0 1.2-.1 2.1-.1 1.8 0 4.7.2 8 1.5 1.7.6 3.4 1.4 5.2 1.9 1.9.5 3.9.8 6.1.8.6 0 1.1 0 1.7-.1.6-.1 1.2-.1 1.8-.2.6-.1 1.1-.2 1.7-.3.6-.1 1.1-.3 1.7-.4 1.1-.4 2.2-.8 3.4-1.4 1.1-.6 2.3-1.3 3.7-2 2.7-1.6 6.4-2.7 9.9-3 .4 0 .9-.1 1.3-.1h1.4c.8 0 1.6 0 2.6.1 1 0 1.9.2 2.9.3 1 .2 1.9.4 2.9.7 1.9.6 3.7 1.4 5.2 2.1 1.5.7 2.8 1.2 4.2 1.5 1.4.3 2.8.4 4.4.5h1l1.4-.1h.7c.2 0 .4-.1.5-.1l1-.1c1.5-.3 2.8-.7 4.2-1.3 1.4-.6 3-1.6 5-2.5 2-.9 4.4-1.6 6.6-2 1.1-.1 2.3-.3 3.4-.3h3.2c.4 0 1.1.1 1.7.1.6.1 1.2.1 1.8.2 1.2.2 2.3.4 3.5.8 2.3.7 4.4 1.8 6.1 2.6 1.7.8 2.9 1.3 4.4 1.6.7.1 1.5.3 2.3.3.4 0 .8.1 1.2.1h3.3l.5-.1c.7 0 1.5-.2 2.2-.3 1.5-.3 2.8-.8 4.4-1.6 1.6-.8 3.7-1.9 6.1-2.6 2.3-.7 4.7-1 6.9-1.1h3.3c.8 0 2.2.2 3.4.3 2.3.4 4.6 1.1 6.6 2 2.1.9 3.6 1.9 5 2.5 1.4.6 2.7 1.1 4.2 1.3.8.1 1.5.2 2.3.3H343.8l1-.1c.7-.1 1.4-.2 2.1-.4 1.4-.3 2.7-.8 4.2-1.5s3.3-1.5 5.2-2.1c3.9-1.2 7.7-1.2 11-.9.8.1 1.8.2 2.7.4.9.2 1.7.4 2.6.6 1.7.5 3.3 1.2 4.7 2 1.4.7 2.6 1.5 3.7 2 1.1.6 2.2 1 3.4 1.4 1.1.3 2.3.6 3.5.7.6.1 1.1.1 1.7.2.6 0 1.2 0 1.8.1 2.2 0 4.2-.3 6.1-.8 1.9-.5 3.6-1.3 5.2-1.9 3.3-1.3 6.2-1.5 8-1.5.9 0 1.6.1 2.1.1s.7.1.7.1-.2 0-.7.1c-.5.1-1.2.1-2.1.3-1.8.3-4.4 1-7.2 2.7-1.5.8-3.1 1.9-5.1 2.8-2 .9-4.4 1.6-7 1.9-.6.1-1.2.1-1.8.2-.7 0-1.4 0-2.1.1-1.4 0-2.8-.1-4.3-.3-1.5-.3-3-.6-4.5-1.2-1.4-.5-2.8-1.2-4.1-1.7-1.3-.5-2.5-.9-3.8-1.2-.6-.2-1.3-.2-2-.3-.3 0-.6 0-1-.1-.3 0-.6-.1-1 0-3 0-5.8.3-8.4 1.3-1.3.5-2.6 1.2-4.1 2.1-1.6.8-3.5 1.8-5.5 2.4-1 .3-2.1.5-3.1.7l-1.6.2c-.3 0-.6.1-.8.1h-.7l-1.4.1h-1.7c-1 0-2.1-.1-3.2-.2-2.2-.3-4.4-.8-6.5-1.7-2.1-.8-3.7-1.8-5.2-2.3-1.4-.6-2.8-.9-4.3-1.1-.7 0-1.3-.2-2.3-.2h-1.3l-1.2.1c-1.6.1-3.1.4-4.5.8-1.4.5-2.8 1.2-4.6 2.1-1.8.9-4.2 1.9-6.6 2.5-1.2.3-2.3.5-3.6.6l-.9.1h-4.1c-.6 0-1.1-.1-1.7-.1-1.2-.1-2.3-.3-3.5-.6-2.4-.5-4.7-1.5-6.6-2.4-1.9-.9-3.3-1.6-4.6-2.1-.7-.2-1.4-.4-2.2-.5-.4-.1-.7-.1-1.1-.2-.4 0-.6-.1-1.2-.1l-1.4-.1h-.2.1-1c-.8 0-1.6.1-2.4.1-1.5.2-2.9.5-4.3 1.1-1.4.6-3.1 1.5-5.2 2.3-2 .8-4.3 1.4-6.5 1.7-.6.1-1.1.1-1.7.1l-.8.1h-3.8c-1 0-2.1-.2-3.1-.3-1-.2-2.1-.4-3.1-.7-2-.6-4-1.5-5.5-2.4-1.6-.9-2.9-1.6-4.2-2.1-.6-.3-1.3-.5-2-.6-.7-.2-1.4-.3-2-.4l-.5-.1h-.5l-1.2-.1c-.6-.1-1.4 0-2.1-.1-2.9 0-5.3.5-7.8 1.5-1.3.5-2.6 1.1-4.1 1.7-1.4.6-3 .9-4.4 1.2-.7.1-1.5.2-2.2.2-.7 0-1.5.1-2.1.1-.7 0-1.3 0-2-.1s-1.3-.1-1.9-.2c-2.5-.3-4.9-.9-6.9-1.9-2-.9-3.6-2-5.1-2.8-2.9-1.7-5.4-2.4-7.2-2.7-.9-.2-1.6-.2-2.1-.3.2-.2 0-.2 0-.2z" id="Wave1"/>
  </g>

  <path class="st4" d="M2754.1 275.1h101v227h-101z"/>
  <path class="st5" d="M2787.9 275.1h67.2v227h-67.2z"/>
  <g id="Tree4">
    <path class="st9" d="M3000 753.7h-95.2l-11-180.7c4-1.3 7.9-2.8 11.6-4.5l3.3.9c11.9 14.1 29.8 23.1 49.8 23.1 1.3 0 2.7 0 4-.1-3.4 28-10 115.9 37.5 161.3z"/>
    <path class="st10" d="M3000 476.9v100.7c-10.3 8.5-23.3 13.9-37.4 14.8-1.3.1-2.7.1-4 .1-12.4 0-23.9-3.4-33.7-9.4-6.1-3.7-11.5-8.3-16.1-13.7-.5-.6-1-1.1-1.4-1.7-.6.3-1.3.6-1.9.9-3.8 1.7-7.6 3.3-11.6 4.5-9.6 3.1-19.9 4.7-30.5 4.7-29.8 0-56.6-13-74.9-33.5-10.6-11.9-18.4-26.2-22.5-42.1-2-8-3.1-16.3-3.1-24.9 0-6 .5-11.8 1.5-17.5 3.3-18.6 11.6-35.4 23.6-48.9 16.7-19 40.5-31.6 67.2-33.7 2.7-.2 5.5-.3 8.3-.3 50.4 0 92.2 37.1 99.4 85.5 14 .7 26.8 6.1 37.1 14.5z"/>
  </g>
  <g id="Building6">
    <path class="st4" d="M2660.3 336.8h101v227h-101z"/>
    <path class="st5" d="M2694.2 336.8h67.2v227h-67.2z"/>
  </g>
  <g id="House3">
    <path class="st11" d="M2435.8 502.9h275v209.5h-275z"/>
    <path class="st12" d="M2685.8 418.4h-224l-26 84.5h275z"/>
  </g>
  <g id="House2">
    <path class="st13" d="M1505.3 463.7h275v319.6h-275z"/>
    <path class="st14" d="M1755.3 379.2h-224l-26 84.5h275z"/>
  </g>
  <path id="Tree3" class="st10" d="M2552.4 524.8c0 36-29.2 65.2-65.2 65.2-14.7 0-28.3-4.9-39.2-13.1-17.4 14.4-39.7 23.1-64.1 23.1-15.3 0-29.7-3.4-42.7-9.5-16.2 28.4-46.7 47.5-81.6 47.5-51.8 0-93.9-42-93.9-93.9 0-51.8 42-93.9 93.9-93.9 11.8 0 23.1 2.2 33.5 6.1 16.1-34 50.8-57.5 90.9-57.5 41.7 0 77.4 25.4 92.7 61.5 3.4-.6 7-.8 10.5-.8 36 .1 65.2 29.3 65.2 65.3z"/>
  <g id="BigBen">
    <path class="st15" d="M2145.2 254.3h85.2v41.6h-85.2z"/>
    <path class="st16" d="M2058.3 254.3h86.9v41.6h-86.9z"/>
    <path class="st15" d="M2215.5 295.9v8.6H2145v46.7c37.1.4 67.1 30.6 67.1 67.8 0 23.4-11.8 44-29.9 56.2-10.6 7.2-23.4 11.4-37.2 11.6v40.6H2230.4V295.9h-14.9z"/>
    <path class="st16" d="M2144.3 351.1h.7v-46.7h-71.9v-8.6h-14.9v231.4h86.8v-40.6h-.7c-14 0-27.1-4.3-37.9-11.6-18-12.2-29.9-32.8-29.9-56.2.1-37.4 30.4-67.7 67.8-67.7z"/>
    <path class="st17" d="M2069.7 236.1l39-43.2h35.6v43.2z"/>
    <path class="st18" d="M2219 236.1l-39-43.2h-35.7v43.2z"/>
    <path class="st17" d="M2107.2 152.6l37.1-115.9v115.9z"/>
    <path class="st18" d="M2181.5 152.6l-37.2-115.9v115.9zM2144.3 291h102.2v27h-102.2zM2144.3 236.1h86.1v27h-86.1zM2042.1 291h102.2v27h-102.2z"/>
    <path class="st17" d="M2042.1 291h102.2v27h-102.2z"/>
    <path class="st18" d="M2060.2 236.1h84.1v27h-84.1z"/>
    <path class="st17" d="M2058.3 236.1h86.1v27h-86.1z"/>
    <path class="st19" d="M2212.1 589.4v-62.1H2145v251h531.8V589.4z"/>
    <path class="st20" d="M2145 351.1v135.5c13.8-.1 26.6-4.4 37.2-11.6 18-12.2 29.9-32.8 29.9-56.2 0-37.1-30-67.3-67.1-67.7z"/>
    <path class="st15" d="M2145 152.6h36.6V193H2145zM2076.6 527.3h68.5v251h-68.5z"/>
    <path class="st3" d="M2144.3 351.1c-37.4 0-67.8 30.3-67.8 67.8 0 23.4 11.8 44 29.9 56.2 10.8 7.3 23.9 11.6 37.9 11.6h.7V351.1h-.7z"/>
    <path class="st16" d="M2108.4 152.6h36.6V193h-36.6z"/>
    <path class="st15" d="M2212.1 610.1h24.7v108.7h-24.7zM2212.1 565.4h479.3v24.7h-479.3z"/>
    <path class="st9" d="M2076.6 753.7H3000v24.7h-923.4z"/>
    <path class="st15" d="M2314.1 610.1h24.7v108.7h-24.7zM2416.4 610.1h24.7v108.7h-24.7zM2527.8 610.1h24.7v108.7h-24.7zM2613.8 610.1h24.7v108.7h-24.7z"/>
  </g>
  <path id="Road0" class="st21" d="M463 778.3h2537v50.1H463z"/>
  <g id="TowerBridge">
    <path class="st22" d="M-.1 684.8h132.3v97.9H-.1zM494.8 706.1h387.7v76.6H494.8z"/>
    <path class="st15" d="M253.913 547.734l40.305-40.305 4.667 4.666L258.58 552.4z"/>
    <path class="st15" d="M329.702 552.44l-40.305-40.305 4.667-4.667 40.305 40.305z"/>
    <path class="st15" d="M325.106 547.726l40.305-40.305 4.668 4.668-40.305 40.305z"/>
    <path class="st15" d="M400.873 552.428l-40.305-40.305 4.667-4.666 40.304 40.304z"/>
    <path class="st15" d="M392.502 547.717l40.305-40.305 4.667 4.667-40.305 40.304z"/>
    <path class="st15" d="M468.25 552.42l-40.304-40.305 4.667-4.667 40.305 40.305z"/>
    <path class="st15" d="M463.696 547.71L504 507.404l4.668 4.667-40.305 40.304z"/>
    <path class="st15" d="M539.422 552.41l-40.305-40.306 4.667-4.667 40.305 40.305zM116 553.3h98v268.1h-98z"/>
    <path class="st19" d="M175.6 553.3h84.8v268.1h-84.8z"/>
    <path class="st16" d="M85.3 410h23.5v86.1H85.3z"/>
    <path class="st15" d="M108.7 410h23.5v86.1h-23.5z"/>
    <path class="st17" d="M108.7 410v-43.8L85.3 410z"/>
    <path class="st18" d="M108.7 366.2V410h23.5z"/>
    <path class="st19" d="M128.7 410h23.5v86.1h-23.5z"/>
    <path class="st15" d="M152.1 410h23.5v86.1h-23.5z"/>
    <path class="st17" d="M152.1 410v-43.8L128.7 410z"/>
    <path class="st18" d="M152.1 366.2V410h23.5z"/>
    <g>
      <path class="st19" d="M232.3 410h23.5v86.1h-23.5z"/>
      <path class="st15" d="M255.8 410h23.5v86.1h-23.5z"/>
      <g>
        <path class="st17" d="M255.8 410v-43.8L232.3 410z"/>
        <path class="st18" d="M255.8 366.2V410h23.5z"/>
      </g>
    </g>
    <path class="st16" d="M85.3 486.9H235V573H85.3z"/>
    <path class="st15" d="M211.4 486.9h67.8V573h-67.8z"/>
    <g>
      <path class="st17" d="M178.2 334.2v-58.6l-55.9 58.6z"/>
      <path class="st18" d="M178.2 275.6v58.6h55.9z"/>
      <path class="st16" d="M122.3 334.2h75.1v152.6h-75.1z"/>
      <path class="st15" d="M178.7 334.2h56.2v152.6h-56.2z"/>
    </g>
    <g>
      <path class="st16" d="M188 410h23.5v86.1H188z"/>
      <path class="st15" d="M211.4 410h23.5v86.1h-23.5z"/>
      <g>
        <path class="st17" d="M211.4 410v-43.8L188 410z"/>
        <path class="st18" d="M211.4 366.2V410h23.5z"/>
      </g>
    </g>
    <g>
      <path class="st15" d="M571.9 553.3h98v268.1h-98z"/>
      <path class="st19" d="M631.5 553.3h84.8v268.1h-84.8z"/>
      <path class="st16" d="M541.2 410h23.5v86.1h-23.5z"/>
      <path class="st15" d="M564.6 410h23.5v86.1h-23.5z"/>
      <path class="st17" d="M564.6 410v-43.8L541.2 410z"/>
      <path class="st18" d="M564.6 366.2V410h23.5z"/>
      <path class="st19" d="M584.6 410h23.5v86.1h-23.5z"/>
      <path class="st15" d="M608 410h23.5v86.1H608z"/>
      <path class="st17" d="M608 410v-43.8L584.6 410z"/>
      <path class="st18" d="M608 366.2V410h23.5z"/>
      <g>
        <path class="st19" d="M688.2 410h23.5v86.1h-23.5z"/>
        <path class="st15" d="M711.7 410h23.5v86.1h-23.5z"/>
        <g>
          <path class="st17" d="M711.7 410v-43.8L688.2 410z"/>
          <path class="st18" d="M711.7 366.2V410h23.5z"/>
        </g>
      </g>
      <path class="st16" d="M541.2 486.9h149.7V573H541.2z"/>
      <path class="st15" d="M667.3 486.9h67.8V573h-67.8z"/>
      <g>
        <path class="st17" d="M634.1 334.2v-58.6l-55.9 58.6z"/>
        <path class="st18" d="M634.1 275.6v58.6H690z"/>
        <path class="st16" d="M578.2 334.2h75.1v152.6h-75.1z"/>
        <path class="st15" d="M634.6 334.2h56.2v152.6h-56.2z"/>
      </g>
      <g>
        <path class="st16" d="M643.9 410h23.5v86.1h-23.5z"/>
        <path class="st15" d="M667.3 410h23.5v86.1h-23.5z"/>
        <g>
          <path class="st17" d="M667.3 410v-43.8L643.9 410z"/>
          <path class="st18" d="M667.3 366.2V410h23.5z"/>
        </g>
      </g>
    </g>
    <path class="st16" d="M211.4 542.5h347v30.4h-347zM211.4 486.9h347v30.4h-347z"/>
    <path class="st15" d="M-.1 706.1H116V753H-.1zM631.5 706.1H836V753H631.5z"/>
    <path class="st23" d="M189.8 613.9H248v92.3h-58.2zM650 613.9h58.2v92.3H650z"/>
    <path class="st24" d="M145.5 361.3h14.3v134.8h-14.3zM600.9 361.3h14.3v134.8h-14.3z"/>
    <path id="Ramp1" class="st15" d="M134.51 708.914l226.28-82.353 16.04 44.073-226.28 82.353z"/>
    <path id="Ramp2" class="st15" d="M606.552 753.05l-198.795-82.146 17.91-43.345 198.796 82.145z"/>
  </g>
  <g id="House1">
    <path class="st11" d="M1342.3 483.7h275v209.5h-275z"/>
    <path class="st12" d="M1592.3 399.1h-224l-26 84.6h275z"/>
  </g>
  <path id="Wave0" class="st2" d="M372 809.5c-1-1-7.9-7.3-19.8-7.4h-.1c-12.2 0-19.1 6.6-19.9 7.4 0 0-4.3 4-11.6 4-7.2 0-11.3-3.6-11.7-4-.8-.8-7.8-7.3-19.8-7.4h-.1-.1c-12.1 0-19.1 6.6-19.8 7.4l3.5 3.5s-.1 0-.1.1l-3.6-3.6s-3.1 2.8-8.5 3.7c-1 .2-2 .3-3.2.3-7.2 0-11.3-3.6-11.7-4-.9-.9-7.8-7.3-19.8-7.4h-.1-.1c-4.7 0-8.6 1-11.6 2.3-4.8 1.9-7.5 4.5-8.1 5.1-.2.2-4.3 4-11.7 4-7.4 0-11.5-3.8-11.7-4-.5-.5-2.9-2.7-6.9-4.5-3.3-1.5-7.6-2.8-12.9-2.8h-.1c-11.9 0-18.8 6.4-19.8 7.3-.2.2-4.3 4-11.7 4-7.2 0-11.3-3.6-11.7-4-.3-.3-1.5-1.4-3.4-2.6-3.3-2.1-8.8-4.7-16.4-4.7h-.1-.1c-12.1 0-19.1 6.6-19.8 7.4 0 0-4.3 4-11.6 4-1 0-2-.1-2.9-.2-5.5-.8-8.6-3.6-8.8-3.8-1-.9-7.9-7.3-19.8-7.3h-.1-.1c-12.1 0-19.1 6.6-19.8 7.4L20 813c-2 1.3-3.2 2.4-3.5 2.7l5.5 5.5c-3.3 1.7-5.2 3.5-5.5 3.9l8.3 8.3c.4-.4 4.5-4 11.7-4 7.1 0 11.3 3.6 11.7 4 .8.8 7.8 7.3 19.8 7.4 5 0 9.2-1.2 12.4-2.6.7-.3 1.3-.6 1.8-.9 3.3-1.7 5.2-3.5 5.6-3.9.4-.4 4.5-4 11.7-4 7.2 0 11.3 3.6 11.7 4 .8.8 7.8 7.3 19.8 7.4h.1c6.1 0 10.8-1.7 14.2-3.4 3.3-1.8 5.3-3.6 5.6-4 0 0 4.3-3.9 11.6-4 7.3 0 11.5 3.8 11.7 4 1 .9 7.9 7.3 19.8 7.3h.1c6.1 0 10.9-1.7 14.2-3.4 3.4-1.8 5.3-3.6 5.7-4 0 0 4.3-3.9 11.6-4 7.2 0 11.3 3.6 11.7 4 .8.8 7.8 7.3 19.8 7.4h.1c6.1 0 10.8-1.7 14.2-3.4 3.3-1.8 5.3-3.6 5.6-4l-5.5-5.6s.1 0 .1-.1l5.6 5.6s4.3-3.9 11.6-4c7.2 0 11.3 3.6 11.7 4 .8.8 7.8 7.3 19.8 7.4h.1c6.1 0 10.8-1.7 14.2-3.4 3.4-1.8 5.3-3.6 5.7-4 0 0 4.3-3.9 11.6-4 7.1 0 11.3 3.6 11.7 4 .8.8 7.5 7 19 7.3v-27.3c-6.4-.1-10.2-3.3-10.6-3.7zm-97.4 11.7s-.1 0-.1.1l-.3-.3-.5-.5.1-.1.6.6.2.2z"/>
  <path id="Road1" class="st22" d="M3000 821v214.7H0V821h3000z"/>
  <path id="Tree2" class="st10" d="M2112.1 660c-.3-16.3-13.7-29.4-30.1-29.4-11.2 0-20.9 6.1-26.1 15.1-5.6-11.7-17.5-19.8-31.4-19.8-19.2 0-34.7 15.6-34.7 34.7 0 3.7.6 7.2 1.6 10.6-15.2 1.5-27 14.3-27 29.9 0 6.8 2.2 13 6 18.1-.7 3.9-1.2 7.9-1.2 12 0 34.8 28.2 63 63 63 16.3 0 31.1-6.2 42.2-16.3 2.5.3 4.9.5 7.5.5 34.8 0 63-28.2 63-63 .1-24-13.2-44.8-32.8-55.4z"/>
  <path class="st25" d="M0 1023.3c29.4 0 29.4 16 58.8 16s29.4-16 58.8-16 29.4 16 58.8 16 29.4-16 58.8-16 29.4 16 58.8 16 29.4-16 58.8-16 29.4 16 58.8 16 29.4-16 58.8-16 29.4 16 58.8 16 29.4-16 58.8-16 29.4 16 58.8 16 29.4-16 58.8-16 29.4 16 58.8 16 29.4-16 58.8-16 29.4 16 58.8 16 29.4-16 58.8-16 29.4 16 58.8 16 29.4-16 58.8-16 29.4 16 58.8 16 29.4-16 58.8-16 29.4 16 58.8 16 29.4-16 58.8-16 29.4 16 58.8 16 29.4-16 58.8-16 29.4 16 58.8 16 29.4-16 58.8-16 29.4 16 58.8 16 29.4-16 58.8-16 29.4 16 58.8 16 29.4-16 58.8-16 29.4 16 58.8 16 29.4-16 58.8-16 29.4 16 58.8 16 29.4-16 58.8-16 29.4 16 58.8 16 29.4-16 58.8-16 29.4 16 58.8 16 29.4-16 58.8-16 29.4 16 58.8 16 29.4-16 58.8-16 29.4 16 58.8 16 29.4-16 58.8-16 29.4 16 58.8 16 29.4-16 58.8-16 29.4 16 58.8 16 29.4-16 58.8-16 29.4 16 58.8 16 29.4-16 58.8-16 29.4 16 58.8 16 29.4-16 58.8-16 29.4 16 58.8 16"/>
  <path class="st26" d="M0 995.3c29.4 0 29.4 16 58.8 16s29.4-16 58.8-16 29.4 16 58.8 16 29.4-16 58.8-16 29.4 16 58.8 16 29.4-16 58.8-16 29.4 16 58.8 16 29.4-16 58.8-16 29.4 16 58.8 16 29.4-16 58.8-16 29.4 16 58.8 16 29.4-16 58.8-16 29.4 16 58.8 16 29.4-16 58.8-16 29.4 16 58.8 16 29.4-16 58.8-16 29.4 16 58.8 16 29.4-16 58.8-16 29.4 16 58.8 16 29.4-16 58.8-16 29.4 16 58.8 16 29.4-16 58.8-16 29.4 16 58.8 16 29.4-16 58.8-16 29.4 16 58.8 16 29.4-16 58.8-16 29.4 16 58.8 16 29.4-16 58.8-16 29.4 16 58.8 16 29.4-16 58.8-16 29.4 16 58.8 16 29.4-16 58.8-16 29.4 16 58.8 16 29.4-16 58.8-16 29.4 16 58.8 16 29.4-16 58.8-16 29.4 16 58.8 16 29.4-16 58.8-16 29.4 16 58.8 16 29.4-16 58.8-16 29.4 16 58.8 16 29.4-16 58.8-16 29.4 16 58.8 16 29.4-16 58.8-16 29.4 16 58.8 16 29.4-16 58.8-16 29.4 16 58.8 16 29.4-16 58.8-16 29.4 16 58.8 16 29.4-16 58.8-16 29.4 16 58.8 16"/>
  <path id="Cloud3" class="st27" d="M2758.1 223.5c-4.7 0-9.2 1.2-13 3.3-2.1-13.1-13.4-23.1-27-23.1-8.6 0-16.2 3.9-21.2 10.1-8.7-9.4-21.2-15.3-35-15.3-2.8 0-5.5.3-8.2.7-11.2-20.2-32.7-33.9-57.5-33.9-36.3 0-65.7 29.4-65.7 65.7 0 2.9.2 5.7.6 8.5-.3.1-.6.1-.9.2-2.9-11.9-13.7-20.8-26.5-20.8-10.7 0-19.9 6.1-24.4 15-1.9-.4-3.9-.6-6-.6-16.8 0-30.4 13.6-30.4 30.4 0 16.8 13.6 30.4 30.4 30.4 13.3 0 24.6-8.6 28.7-20.5.5 0 1.1.1 1.6.1.7 17.8 15.3 32.1 33.3 32.1 12.3 0 23-6.6 28.7-16.5 9.1 4.8 19.4 7.5 30.4 7.5 14 0 26.9-4.4 37.5-11.8 7.9 5.8 17.6 9.2 28.1 9.2 18.6 0 34.7-10.6 42.6-26.1 3.2 11.6 13.8 20 26.3 20 8.8 0 16.5-4.1 21.5-10.5 1.9.4 3.8.6 5.8.6 15.1 0 27.3-12.2 27.3-27.3s-11.9-27.4-27-27.4z"/>
  <path id="Cloud2" class="st27" d="M1764.2 115.2c1.5-4 2.3-8.2 2.3-12.7 0-19.9-16.1-36-36-36-9.6 0-18.3 3.8-24.7 9.9-14.8-26.5-43-44.4-75.5-44.4-47.7 0-86.4 38.7-86.4 86.4 0 3.8.3 7.5.7 11.2-20.5 3.7-36 21.6-36 43.1 0 24.2 19.6 43.8 43.8 43.8 16.1 0 30.2-8.7 37.8-21.7 12 6.3 25.6 9.8 40 9.8 17.9 0 34.4-5.4 48.2-14.7 7.5 26.3 31.7 45.5 60.4 45.5 34.7 0 62.8-28.1 62.8-62.8.2-25.6-15.3-47.7-37.4-57.4z"/>
  <path id="Cloud1" class="st27" d="M491 102.5c-6.2 0-12 1.6-17.1 4.3-2.7-17.2-17.6-30.3-35.5-30.3-11.3 0-21.3 5.2-27.9 13.3-11.5-12.4-27.9-20.1-46-20.1-3.7 0-7.3.3-10.8.9C339 44 310.6 26 278.1 26c-47.7 0-86.4 38.7-86.4 86.4 0 3.8.3 7.5.7 11.2-.4.1-.8.1-1.1.2-3.9-15.7-18-27.3-34.9-27.3-14 0-26.2 8-32.1 19.7-2.5-.5-5.2-.8-7.8-.8-22.1 0-39.9 17.9-39.9 39.9 0 22.1 17.9 39.9 39.9 39.9 17.5 0 32.4-11.3 37.8-27 .7 0 1.4.1 2.2.1.9 23.4 20.1 42.2 43.8 42.2 16.1 0 30.2-8.7 37.8-21.7 12 6.3 25.6 9.8 40 9.8 18.4 0 35.4-5.8 49.4-15.5 10.4 7.6 23.2 12.1 37 12.1 24.4 0 45.6-13.9 56-34.3 4.2 15.2 18.1 26.4 34.7 26.4 11.5 0 21.8-5.4 28.3-13.8 2.5.5 5 .8 7.6.8 19.9 0 36-16.1 36-36-.2-19.7-16.3-35.8-36.1-35.8z"/>
  <g id="Gherkin">
    <path class="st28" d="M972 424.7L793.6 552c-1.1 27.4-.5 55.3 2.4 83 1 9.6 2.3 18.7 3.8 27.3L972 539.4V424.7zM972 152c-39.2 0-73 23.3-88.4 56.7 0 0-31.7 62.6-57.6 153.1l146-104.2V152zM864.4 783.3c49.8 36.5 107.6 21.6 107.6 21.6v-98.3l-107.6 76.7z"/>
    <path class="st29" d="M972 539.4l161.6-115.3c-7.5-35-16.7-67.6-26-96.2L972 424.7v114.7zM972 706.5v98.3s154 40 176-169.9c2-18.7 2.9-37.5 2.9-56.2L972 706.5zM1054.9 198.4c-17.1-27.8-47.8-46.4-82.9-46.4v105.6l82.9-59.2z"/>
    <path class="st30" d="M972 257.6L826 361.8c-15.9 55.6-29.6 121.7-32.4 190.3L972 424.7V257.6z"/>
    <path class="st31" d="M972 424.7l135.6-96.8c-23.3-71.8-47.2-119.1-47.2-119.1-1.6-3.6-3.5-7-5.5-10.3L972 257.6v167.1z"/>
    <path class="st30" d="M972 539.4l-172.2 123c11.5 64.1 36.8 100.6 64.6 121L972 706.5V539.4z"/>
    <path class="st31" d="M972 706.5l178.9-127.7c.1-53.7-7-106.5-17.4-154.7L972 539.4v167.1z"/>
  </g>
  <g id="House4">
    <path class="st32" d="M2649.8 544.2h275v209.5h-275z"/>
    <path class="st33" d="M2899.8 459.6h-224l-26 84.6h275z"/>
    <path class="st34" d="M2708.4 627.4h30.4v65.9h-30.4zM2673.2 627.4h30.4v65.9h-30.4zM2673.2 598h65.7v25h-65.7z"/>
    <g>
      <path class="st34" d="M2789.3 627.4h30.4v65.9h-30.4zM2754.1 627.4h30.4v65.9h-30.4zM2754.1 598h65.7v25h-65.7z"/>
    </g>
    <g>
      <path class="st34" d="M2874.4 627.4h30.4v65.9h-30.4zM2839.2 627.4h30.4v65.9h-30.4zM2839.2 598h65.7v25h-65.7z"/>
    </g>
  </g>
  <g id="TowerOfLondon">
    <path class="st18" d="M1312.9 355.2l-68.5 179.1H1380z"/>
    <path class="st22" d="M1266.8 520.9V408.1h-67.1v368.6h531.8V520.9z"/>
    <path class="st35" d="M1131.2 407.5h68.5v302.2h-68.5z"/>
    <path class="st36" d="M1266.8 541.5h24.7v108.7h-24.7z"/>
    <path class="st35" d="M1266.8 496.8h479.3v24.7h-479.3z"/>
    <path class="st36" d="M1368.8 541.5h24.7v108.7h-24.7zM1471.1 541.5h24.7v108.7h-24.7zM1582.4 541.5h24.7v108.7h-24.7zM1668.4 541.5h24.7v108.7h-24.7z"/>
    <path class="st18" d="M1199.7 228.4l-68.5 179.1h135.6z"/>
  </g>
  <path class="st3" d="M1483 805.8l-279.2-438-5.6 3.6-5.6-3.6-279.1 438 14.2 9.1 270.5-424.4 270.5 424.4z"/>
  <g id="LondonEye">
    <path class="st3" d="M1296.9 589.2c-7 3.2-14.1 6.1-21.5 8.6-.2.1-.4.2-.7.2-7.8 2.7-15.8 5-24 6.8-6.9 1.6-13.9 2.8-21 3.7-8.6 1.1-17.4 1.8-26.2 1.9h-7.6c-4.1-.1-8.2-.2-12.2-.5-16.3-1.1-32.1-3.9-47.3-8.2-.7-.2-1.3-.4-2-.6-6.5-1.9-12.9-4.1-19.2-6.5-.6-.2-1.1-.4-1.6-.7l-11.1 7.9v3.7c2.9 1.2 5.8 2.4 8.8 3.6l3.9 4 17.2 17.3 3.9 3.9 39.3 39.5 8 8.1 4 4 3.8-3.8v3.8h18.5V682l3.8 3.8 12.2-12.3 3.7-3.7 21-21.1 24-24.1.7-.7 16.2-16.3c1.8-.7 3.5-1.4 5.3-2.2.2-.1.5-.2.7-.3h11v-21.9c-3.7 2.3-7.6 4.2-11.6 6zM1148 620c11.7 2.5 23.6 4.1 35.7 4.9 2.6.2 5.2.3 7.8.4v38.3L1148 620zm81.7 23.8l-19.7 19.7v-38.3c6.6-.3 13.2-.8 19.7-1.6 7.1-.9 14.1-2 21-3.4 1.1-.2 2.2-.5 3.4-.7l-24.4 24.3zm67.2-54.6c-7 3.2-14.1 6.1-21.5 8.6-.2.1-.4.2-.7.2-7.8 2.7-15.8 5-24 6.8-6.9 1.6-13.9 2.8-21 3.7-8.6 1.1-17.4 1.8-26.2 1.9h-7.6c-4.1-.1-8.2-.2-12.2-.5-16.3-1.1-32.1-3.9-47.3-8.2-.7-.2-1.3-.4-2-.6-6.5-1.9-12.9-4.1-19.2-6.5-.6-.2-1.1-.4-1.6-.7l-11.1 7.9v3.7c2.9 1.2 5.8 2.4 8.8 3.6l3.9 4 17.2 17.3 3.9 3.9 39.3 39.5 8 8.1 4 4 3.8-3.8v3.8h18.5V682l3.8 3.8 12.2-12.3 3.7-3.7 21-21.1 24-24.1.7-.7 16.2-16.3c1.8-.7 3.5-1.4 5.3-2.2.2-.1.5-.2.7-.3h11v-21.9c-3.7 2.3-7.6 4.2-11.6 6zM1148 620c11.7 2.5 23.6 4.1 35.7 4.9 2.6.2 5.2.3 7.8.4v38.3L1148 620zm81.7 23.8l-19.7 19.7v-38.3c6.6-.3 13.2-.8 19.7-1.6 7.1-.9 14.1-2 21-3.4 1.1-.2 2.2-.5 3.4-.7l-24.4 24.3zm67.2-54.6c-7 3.2-14.1 6.1-21.5 8.6-.2.1-.4.2-.7.2-7.8 2.7-15.8 5-24 6.8-6.9 1.6-13.9 2.8-21 3.7-8.6 1.1-17.4 1.8-26.2 1.9h-7.6c-4.1-.1-8.2-.2-12.2-.5-16.3-1.1-32.1-3.9-47.3-8.2-.7-.2-1.3-.4-2-.6-6.5-1.9-12.9-4.1-19.2-6.5-.6-.2-1.1-.4-1.6-.7l-11.1 7.9v3.7c2.9 1.2 5.8 2.4 8.8 3.6l3.9 4 17.2 17.3 3.9 3.9 39.3 39.5 8 8.1 4 4 3.8-3.8v3.8h18.5V682l3.8 3.8 12.2-12.3 3.7-3.7 21-21.1 24-24.1.7-.7 16.2-16.3c1.8-.7 3.5-1.4 5.3-2.2.2-.1.5-.2.7-.3h11v-21.9c-3.7 2.3-7.6 4.2-11.6 6zM1148 620c11.7 2.5 23.6 4.1 35.7 4.9 2.6.2 5.2.3 7.8.4v38.3L1148 620zm81.7 23.8l-19.7 19.7v-38.3c6.6-.3 13.2-.8 19.7-1.6 7.1-.9 14.1-2 21-3.4 1.1-.2 2.2-.5 3.4-.7l-24.4 24.3zm67.2-54.6c-7 3.2-14.1 6.1-21.5 8.6-.2.1-.4.2-.7.2-7.8 2.7-15.8 5-24 6.8-6.9 1.6-13.9 2.8-21 3.7-8.6 1.1-17.4 1.8-26.2 1.9h-7.6c-4.1-.1-8.2-.2-12.2-.5-16.3-1.1-32.1-3.9-47.3-8.2-.7-.2-1.3-.4-2-.6-6.5-1.9-12.9-4.1-19.2-6.5-.6-.2-1.1-.4-1.6-.7l-11.1 7.9v3.7c2.9 1.2 5.8 2.4 8.8 3.6l3.9 4 17.2 17.3 3.9 3.9 39.3 39.5 8 8.1 4 4 3.8-3.8v3.8h18.5V682l3.8 3.8 12.2-12.3 3.7-3.7 21-21.1 24-24.1.7-.7 16.2-16.3c1.8-.7 3.5-1.4 5.3-2.2.2-.1.5-.2.7-.3h11v-21.9c-3.7 2.3-7.6 4.2-11.6 6zM1148 620c11.7 2.5 23.6 4.1 35.7 4.9 2.6.2 5.2.3 7.8.4v38.3L1148 620zm81.7 23.8l-19.7 19.7v-38.3c6.6-.3 13.2-.8 19.7-1.6 7.1-.9 14.1-2 21-3.4 1.1-.2 2.2-.5 3.4-.7l-24.4 24.3zm67.2-54.6c-7 3.2-14.1 6.1-21.5 8.6-.2.1-.4.2-.7.2-7.8 2.7-15.8 5-24 6.8-6.9 1.6-13.9 2.8-21 3.7-8.6 1.1-17.4 1.8-26.2 1.9h-7.6c-4.1-.1-8.2-.2-12.2-.5-16.3-1.1-32.1-3.9-47.3-8.2-.7-.2-1.3-.4-2-.6-6.5-1.9-12.9-4.1-19.2-6.5-.6-.2-1.1-.4-1.6-.7l-11.1 7.9v3.7c2.9 1.2 5.8 2.4 8.8 3.6l3.9 4 17.2 17.3 3.9 3.9 39.3 39.5 8 8.1 4 4 3.8-3.8v3.8h18.5V682l3.8 3.8 12.2-12.3 3.7-3.7 21-21.1 24-24.1.7-.7 16.2-16.3c1.8-.7 3.5-1.4 5.3-2.2.2-.1.5-.2.7-.3h11v-21.9c-3.7 2.3-7.6 4.2-11.6 6zM1148 620c11.7 2.5 23.6 4.1 35.7 4.9 2.6.2 5.2.3 7.8.4v38.3L1148 620zm81.7 23.8l-19.7 19.7v-38.3c6.6-.3 13.2-.8 19.7-1.6 7.1-.9 14.1-2 21-3.4 1.1-.2 2.2-.5 3.4-.7l-24.4 24.3zm67.2-54.6c-7 3.2-14.1 6.1-21.5 8.6-.2.1-.4.2-.7.2-7.8 2.7-15.8 5-24 6.8-6.9 1.6-13.9 2.8-21 3.7-8.6 1.1-17.4 1.8-26.2 1.9h-7.6c-4.1-.1-8.2-.2-12.2-.5-16.3-1.1-32.1-3.9-47.3-8.2-.7-.2-1.3-.4-2-.6-6.5-1.9-12.9-4.1-19.2-6.5-.6-.2-1.1-.4-1.6-.7l-11.1 7.9v3.7c2.9 1.2 5.8 2.4 8.8 3.6l3.9 4 17.2 17.3 3.9 3.9 39.3 39.5 8 8.1 4 4 3.8-3.8v3.8h18.5V682l3.8 3.8 12.2-12.3 3.7-3.7 21-21.1 24-24.1.7-.7 16.2-16.3c1.8-.7 3.5-1.4 5.3-2.2.2-.1.5-.2.7-.3h11v-21.9c-3.7 2.3-7.6 4.2-11.6 6zM1148 620c11.7 2.5 23.6 4.1 35.7 4.9 2.6.2 5.2.3 7.8.4v38.3L1148 620zm81.7 23.8l-19.7 19.7v-38.3c6.6-.3 13.2-.8 19.7-1.6 7.1-.9 14.1-2 21-3.4 1.1-.2 2.2-.5 3.4-.7l-24.4 24.3zm67.2-54.6c-7 3.2-14.1 6.1-21.5 8.6-.2.1-.4.2-.7.2-7.8 2.7-15.8 5-24 6.8-6.9 1.6-13.9 2.8-21 3.7-8.6 1.1-17.4 1.8-26.2 1.9h-7.6c-4.1-.1-8.2-.2-12.2-.5-16.3-1.1-32.1-3.9-47.3-8.2-.7-.2-1.3-.4-2-.6-6.5-1.9-12.9-4.1-19.2-6.5-.6-.2-1.1-.4-1.6-.7l-11.1 7.9v3.7c2.9 1.2 5.8 2.4 8.8 3.6l3.9 4 17.2 17.3 3.9 3.9 39.3 39.5 8 8.1 4 4 3.8-3.8v3.8h18.5V682l3.8 3.8 12.2-12.3 3.7-3.7 21-21.1 24-24.1.7-.7 16.2-16.3c1.8-.7 3.5-1.4 5.3-2.2.2-.1.5-.2.7-.3h11v-21.9c-3.7 2.3-7.6 4.2-11.6 6zM1148 620c11.7 2.5 23.6 4.1 35.7 4.9 2.6.2 5.2.3 7.8.4v38.3L1148 620zm81.7 23.8l-19.7 19.7v-38.3c6.6-.3 13.2-.8 19.7-1.6 7.1-.9 14.1-2 21-3.4 1.1-.2 2.2-.5 3.4-.7l-24.4 24.3zm277-277l-11.2-11.1-63.9-63.6c-1.7-4.6-3.6-9.2-5.6-13.7l.2-91.6v-14h-5.4l2.7-2.7-13.1-13.1-2.7 2.7v-5.4h-13.5l-88.6.2c-6.6-3.1-13.2-5.9-20-8.4L1222 82.2l-8.2-8.3-3.8 3.8V74h-18.5v3.8l-3.8-3.8-8 8.1-62.5 62.8c-8 2.8-15.7 6-23.3 9.7l-88.7-.2h-11.4v5.4l-.2-.2-2.6-2.6-1.1 1.1-12 12 2.7 2.7h-5.4v11.5l.1 59.5.1 29.9c-3.3 7.1-6.3 14.3-8.9 21.7L956 305.9 903.7 358l-8.9 8.8 3.8 3.8h-3.8v18.5h3.8l-3.8 3.8 9.2 9.1 34.9 34.8 17.1 17 12.6 12.6c2.1 5.4 4.3 10.7 6.8 16l-.1 43.2-.1 46.2V587h5.4l-2.7 2.7 13.1 13.1 2.7-2.7v5.4h15.7l31.8-.1h20.1l36.5-.1h4c.2.1.5.2.7.3 2.9 1.2 5.8 2.4 8.8 3.6l3.9 4 17.2 17.3 3.9 3.9 39.3 39.5 8 8.1 4 4 3.8-3.8v3.8h18.5v-4l3.8 3.8 12.2-12.3 3.7-3.7 21-21.1 24-24.1.7-.7 16.2-16.3c1.8-.7 3.5-1.4 5.3-2.2.2-.1.5-.2.7-.3h110.3v-5.4l2.7 2.7 13.1-13.1-2.7-2.7h5.4V569l-.1-47.8v-.6l-.1-24.1v-19.1c1.1-2.6 2.2-5.1 3.2-7.7l65.8-65.6 5.3-5.3 6.1-6.1-3.8-3.8h3.8v-18.5h-3.8l4-3.6zm-22.4 3.8h-37.5c-.4-14.4-2.1-28.5-4.9-42.3l42.4 42.3zm-89.6-197.8l-25.3 25.3c-9.9-9.4-20.5-17.8-31.6-25.3h56.9zm13.1 13.1v58.4c-7.5-11.6-16-22.6-25.4-33l25.4-25.4zm-158.4-50.2c-12.9-2.6-26.1-4.2-39.4-4.8V96.3l39.4 39.4zm-57.9-39.4v34.6c-13.2.4-26.2 1.9-38.9 4.3l38.9-38.9zm-129.9 76.5c-9.1 6.2-17.9 13-26.2 20.4-1.4 1.3-2.9 2.6-4.3 3.9l-24.3-24.3h54.8zm-67.9 13.1l24.3 24.3c-2.5 2.7-4.9 5.4-7.2 8.2-6.2 7.3-11.9 14.8-17.1 22.7v-55.2zM956 331.8l.9-.9-.9 4.8c-2 11.4-3.1 23.1-3.5 34.9h-35.3l38.8-38.8zm0 96.2l-1.9-1.9-36.9-36.9h35.4c.5 10.5 1.6 20.9 3.3 31.1.2 1.3.5 2.6.7 3.9.3 1.9.7 3.7 1.1 5.6L956 428zm37.7 87c7.7 11.5 16.4 22.5 26.1 32.7l-26.1 26.1V515zm13.1 72l26.2-26.2c7.7 7 15.8 13.6 24.2 19.5 3.3 2.3 6.6 4.6 10 6.7h-60.4zm141.2 33c11.7 2.5 23.6 4.1 35.7 4.9 2.6.2 5.2.3 7.8.4v38.3L1148 620zm81.7 23.8l-19.7 19.7v-38.3c6.6-.3 13.2-.8 19.7-1.6 7.1-.9 14.1-2 21-3.4 1.1-.2 2.2-.5 3.4-.7l-24.4 24.3zm102.5-56.8c2.7-1.7 5.4-3.5 8-5.3 4.3-3 8.5-6.1 12.6-9.4 5.1-4 10-8.2 14.7-12.6l8.3 8.3 1.7 1.7 17.3 17.3h-62.6zm75.6-13.1l-27.2-27.2c7.5-8 14.3-16.4 20.6-25.2.2-.2.3-.4.4-.6 2.1-3 4.2-6.1 6.2-9.2v62.2zm-1-90.2c-2.3 4.5-4.7 8.8-7.3 13.1-5 8.4-10.5 16.4-16.5 24.1-.2.2-.3.4-.5.6-2.2 2.8-4.5 5.5-6.8 8.2-3.5 4-7.1 8-10.9 11.8-3.9 4-8 7.8-12.1 11.4-6.6 5.8-13.5 11.2-20.7 16.2-1.9 1.3-3.9 2.6-5.8 3.9-2.8 1.8-5.5 3.5-8.4 5.2-3 1.8-6.1 3.5-9.3 5.2-3.8 2-7.8 4-11.7 5.8-7 3.2-14.1 6.1-21.5 8.6-.2.1-.4.2-.7.2-7.8 2.7-15.8 5-24 6.8-6.9 1.6-13.9 2.8-21 3.7-8.6 1.1-17.4 1.8-26.2 1.9h-7.6c-4.1-.1-8.2-.2-12.2-.5-16.3-1.1-32.1-3.9-47.3-8.2-.7-.2-1.3-.4-2-.6-6.5-1.9-12.9-4.1-19.2-6.5-.6-.2-1.1-.4-1.6-.7-3.7-1.5-7.4-3.1-11.1-4.8-8-3.7-15.7-7.8-23.1-12.3-4.8-2.9-9.5-6-14.1-9.3-23.9-17-44.5-38.4-60.5-63-17.4-26.7-29.5-57.2-34.7-90-1.9-11.9-2.9-24.1-2.9-36.5 0-68 29.3-129.2 76-171.8 41.3-37.7 96.3-60.7 156.5-60.7 26.3 0 51.5 4.4 75.1 12.4 11.7 4 23 8.9 33.8 14.7 25.6 13.6 48.4 31.9 67.2 53.7 35.1 40.7 56.4 93.8 56.4 151.7 0 7.1-.3 14.1-.9 21.1-2.7 30.2-11.2 58.8-24.4 84.6zm34.2-51.2c2.4-10.9 4.1-22.1 5.1-33.3.3-3.3.5-6.6.6-10h37.6l-43.3 43.3zm-144.1 156.7c-7 3.2-14.1 6.1-21.5 8.6-.2.1-.4.2-.7.2-7.8 2.7-15.8 5-24 6.8-6.9 1.6-13.9 2.8-21 3.7-8.6 1.1-17.4 1.8-26.2 1.9h-7.6c-4.1-.1-8.2-.2-12.2-.5-16.3-1.1-32.1-3.9-47.3-8.2-.7-.2-1.3-.4-2-.6-6.5-1.9-12.9-4.1-19.2-6.5-.6-.2-1.1-.4-1.6-.7l-11.1 7.9v3.7c2.9 1.2 5.8 2.4 8.8 3.6l3.9 4 17.2 17.3 3.9 3.9 39.3 39.5 8 8.1 4 4 3.8-3.8v3.8h18.5V682l3.8 3.8 12.2-12.3 3.7-3.7 21-21.1 24-24.1.7-.7 16.2-16.3c1.8-.7 3.5-1.4 5.3-2.2.2-.1.5-.2.7-.3h11v-21.9c-3.7 2.3-7.6 4.2-11.6 6zM1148 620c11.7 2.5 23.6 4.1 35.7 4.9 2.6.2 5.2.3 7.8.4v38.3L1148 620zm81.7 23.8l-19.7 19.7v-38.3c6.6-.3 13.2-.8 19.7-1.6 7.1-.9 14.1-2 21-3.4 1.1-.2 2.2-.5 3.4-.7l-24.4 24.3zm67.2-54.6c-7 3.2-14.1 6.1-21.5 8.6-.2.1-.4.2-.7.2-7.8 2.7-15.8 5-24 6.8-6.9 1.6-13.9 2.8-21 3.7-8.6 1.1-17.4 1.8-26.2 1.9h-7.6c-4.1-.1-8.2-.2-12.2-.5-16.3-1.1-32.1-3.9-47.3-8.2-.7-.2-1.3-.4-2-.6-6.5-1.9-12.9-4.1-19.2-6.5-.6-.2-1.1-.4-1.6-.7l-11.1 7.9v3.7c2.9 1.2 5.8 2.4 8.8 3.6l3.9 4 17.2 17.3 3.9 3.9 39.3 39.5 8 8.1 4 4 3.8-3.8v3.8h18.5V682l3.8 3.8 12.2-12.3 3.7-3.7 21-21.1 24-24.1.7-.7 16.2-16.3c1.8-.7 3.5-1.4 5.3-2.2.2-.1.5-.2.7-.3h11v-21.9c-3.7 2.3-7.6 4.2-11.6 6zM1148 620c11.7 2.5 23.6 4.1 35.7 4.9 2.6.2 5.2.3 7.8.4v38.3L1148 620zm81.7 23.8l-19.7 19.7v-38.3c6.6-.3 13.2-.8 19.7-1.6 7.1-.9 14.1-2 21-3.4 1.1-.2 2.2-.5 3.4-.7l-24.4 24.3zm67.2-54.6c-7 3.2-14.1 6.1-21.5 8.6-.2.1-.4.2-.7.2-7.8 2.7-15.8 5-24 6.8-6.9 1.6-13.9 2.8-21 3.7-8.6 1.1-17.4 1.8-26.2 1.9h-7.6c-4.1-.1-8.2-.2-12.2-.5-16.3-1.1-32.1-3.9-47.3-8.2-.7-.2-1.3-.4-2-.6-6.5-1.9-12.9-4.1-19.2-6.5-.6-.2-1.1-.4-1.6-.7l-11.1 7.9v3.7c2.9 1.2 5.8 2.4 8.8 3.6l3.9 4 17.2 17.3 3.9 3.9 39.3 39.5 8 8.1 4 4 3.8-3.8v3.8h18.5V682l3.8 3.8 12.2-12.3 3.7-3.7 21-21.1 24-24.1.7-.7 16.2-16.3c1.8-.7 3.5-1.4 5.3-2.2.2-.1.5-.2.7-.3h11v-21.9c-3.7 2.3-7.6 4.2-11.6 6zM1148 620c11.7 2.5 23.6 4.1 35.7 4.9 2.6.2 5.2.3 7.8.4v38.3L1148 620zm81.7 23.8l-19.7 19.7v-38.3c6.6-.3 13.2-.8 19.7-1.6 7.1-.9 14.1-2 21-3.4 1.1-.2 2.2-.5 3.4-.7l-24.4 24.3zm67.2-54.6c-7 3.2-14.1 6.1-21.5 8.6-.2.1-.4.2-.7.2-7.8 2.7-15.8 5-24 6.8-6.9 1.6-13.9 2.8-21 3.7-8.6 1.1-17.4 1.8-26.2 1.9h-7.6c-4.1-.1-8.2-.2-12.2-.5-16.3-1.1-32.1-3.9-47.3-8.2-.7-.2-1.3-.4-2-.6-6.5-1.9-12.9-4.1-19.2-6.5-.6-.2-1.1-.4-1.6-.7l-11.1 7.9v3.7c2.9 1.2 5.8 2.4 8.8 3.6l3.9 4 17.2 17.3 3.9 3.9 39.3 39.5 8 8.1 4 4 3.8-3.8v3.8h18.5V682l3.8 3.8 12.2-12.3 3.7-3.7 21-21.1 24-24.1.7-.7 16.2-16.3c1.8-.7 3.5-1.4 5.3-2.2.2-.1.5-.2.7-.3h11v-21.9c-3.7 2.3-7.6 4.2-11.6 6zM1148 620c11.7 2.5 23.6 4.1 35.7 4.9 2.6.2 5.2.3 7.8.4v38.3L1148 620zm81.7 23.8l-19.7 19.7v-38.3c6.6-.3 13.2-.8 19.7-1.6 7.1-.9 14.1-2 21-3.4 1.1-.2 2.2-.5 3.4-.7l-24.4 24.3zm67.2-54.6c-7 3.2-14.1 6.1-21.5 8.6-.2.1-.4.2-.7.2-7.8 2.7-15.8 5-24 6.8-6.9 1.6-13.9 2.8-21 3.7-8.6 1.1-17.4 1.8-26.2 1.9h-7.6c-4.1-.1-8.2-.2-12.2-.5-16.3-1.1-32.1-3.9-47.3-8.2-.7-.2-1.3-.4-2-.6-6.5-1.9-12.9-4.1-19.2-6.5-.6-.2-1.1-.4-1.6-.7l-11.1 7.9v3.7c2.9 1.2 5.8 2.4 8.8 3.6l3.9 4 17.2 17.3 3.9 3.9 39.3 39.5 8 8.1 4 4 3.8-3.8v3.8h18.5V682l3.8 3.8 12.2-12.3 3.7-3.7 21-21.1 24-24.1.7-.7 16.2-16.3c1.8-.7 3.5-1.4 5.3-2.2.2-.1.5-.2.7-.3h11v-21.9c-3.7 2.3-7.6 4.2-11.6 6zM1148 620c11.7 2.5 23.6 4.1 35.7 4.9 2.6.2 5.2.3 7.8.4v38.3L1148 620zm81.7 23.8l-19.7 19.7v-38.3c6.6-.3 13.2-.8 19.7-1.6 7.1-.9 14.1-2 21-3.4 1.1-.2 2.2-.5 3.4-.7l-24.4 24.3zm67.2-54.6c-7 3.2-14.1 6.1-21.5 8.6-.2.1-.4.2-.7.2-7.8 2.7-15.8 5-24 6.8-6.9 1.6-13.9 2.8-21 3.7-8.6 1.1-17.4 1.8-26.2 1.9h-7.6c-4.1-.1-8.2-.2-12.2-.5-16.3-1.1-32.1-3.9-47.3-8.2-.7-.2-1.3-.4-2-.6-6.5-1.9-12.9-4.1-19.2-6.5-.6-.2-1.1-.4-1.6-.7l-11.1 7.9v3.7c2.9 1.2 5.8 2.4 8.8 3.6l3.9 4 17.2 17.3 3.9 3.9 39.3 39.5 8 8.1 4 4 3.8-3.8v3.8h18.5V682l3.8 3.8 12.2-12.3 3.7-3.7 21-21.1 24-24.1.7-.7 16.2-16.3c1.8-.7 3.5-1.4 5.3-2.2.2-.1.5-.2.7-.3h11v-21.9c-3.7 2.3-7.6 4.2-11.6 6zM1148 620c11.7 2.5 23.6 4.1 35.7 4.9 2.6.2 5.2.3 7.8.4v38.3L1148 620zm81.7 23.8l-19.7 19.7v-38.3c6.6-.3 13.2-.8 19.7-1.6 7.1-.9 14.1-2 21-3.4 1.1-.2 2.2-.5 3.4-.7l-24.4 24.3zm67.2-54.6c-7 3.2-14.1 6.1-21.5 8.6-.2.1-.4.2-.7.2-7.8 2.7-15.8 5-24 6.8-6.9 1.6-13.9 2.8-21 3.7-8.6 1.1-17.4 1.8-26.2 1.9h-7.6c-4.1-.1-8.2-.2-12.2-.5-16.3-1.1-32.1-3.9-47.3-8.2-.7-.2-1.3-.4-2-.6-6.5-1.9-12.9-4.1-19.2-6.5-.6-.2-1.1-.4-1.6-.7l-11.1 7.9v3.7c2.9 1.2 5.8 2.4 8.8 3.6l3.9 4 17.2 17.3 3.9 3.9 39.3 39.5 8 8.1 4 4 3.8-3.8v3.8h18.5V682l3.8 3.8 12.2-12.3 3.7-3.7 21-21.1 24-24.1.7-.7 16.2-16.3c1.8-.7 3.5-1.4 5.3-2.2.2-.1.5-.2.7-.3h11v-21.9c-3.7 2.3-7.6 4.2-11.6 6zM1148 620c11.7 2.5 23.6 4.1 35.7 4.9 2.6.2 5.2.3 7.8.4v38.3L1148 620zm81.7 23.8l-19.7 19.7v-38.3c6.6-.3 13.2-.8 19.7-1.6 7.1-.9 14.1-2 21-3.4 1.1-.2 2.2-.5 3.4-.7l-24.4 24.3z"/>
    <radialGradient id="gradient" cx="1200.767" cy="379.9" r="347.581" gradientUnits="userSpaceOnUse">
      <stop offset=".731" stop-color="#4C2358" stop-opacity="0"/>
      <stop offset=".893" stop-color="#451F59" stop-opacity=".601"/>
      <stop offset="1" stop-color="#3D1A5B"/>
    </radialGradient>
    <path class="st37" d="M1296.9 589.2c-7 3.2-14.1 6.1-21.5 8.6-.2.1-.4.2-.7.2-7.8 2.7-15.8 5-24 6.8-6.9 1.6-13.9 2.8-21 3.7-8.6 1.1-17.4 1.8-26.2 1.9h-7.6c-4.1-.1-8.2-.2-12.2-.5-16.3-1.1-32.1-3.9-47.3-8.2-.7-.2-1.3-.4-2-.6-6.5-1.9-12.9-4.1-19.2-6.5-.6-.2-1.1-.4-1.6-.7l-11.1 7.9v3.7c2.9 1.2 5.8 2.4 8.8 3.6l3.9 4 17.2 17.3 3.9 3.9 39.3 39.5 8 8.1 4 4 3.8-3.8v3.8h18.5V682l3.8 3.8 12.2-12.3 3.7-3.7 21-21.1 24-24.1.7-.7 16.2-16.3c1.8-.7 3.5-1.4 5.3-2.2.2-.1.5-.2.7-.3h11v-21.9c-3.7 2.3-7.6 4.2-11.6 6zM1148 620c11.7 2.5 23.6 4.1 35.7 4.9 2.6.2 5.2.3 7.8.4v38.3L1148 620zm81.7 23.8l-19.7 19.7v-38.3c6.6-.3 13.2-.8 19.7-1.6 7.1-.9 14.1-2 21-3.4 1.1-.2 2.2-.5 3.4-.7l-24.4 24.3zm67.2-54.6c-7 3.2-14.1 6.1-21.5 8.6-.2.1-.4.2-.7.2-7.8 2.7-15.8 5-24 6.8-6.9 1.6-13.9 2.8-21 3.7-8.6 1.1-17.4 1.8-26.2 1.9h-7.6c-4.1-.1-8.2-.2-12.2-.5-16.3-1.1-32.1-3.9-47.3-8.2-.7-.2-1.3-.4-2-.6-6.5-1.9-12.9-4.1-19.2-6.5-.6-.2-1.1-.4-1.6-.7l-11.1 7.9v3.7c2.9 1.2 5.8 2.4 8.8 3.6l3.9 4 17.2 17.3 3.9 3.9 39.3 39.5 8 8.1 4 4 3.8-3.8v3.8h18.5V682l3.8 3.8 12.2-12.3 3.7-3.7 21-21.1 24-24.1.7-.7 16.2-16.3c1.8-.7 3.5-1.4 5.3-2.2.2-.1.5-.2.7-.3h11v-21.9c-3.7 2.3-7.6 4.2-11.6 6zM1148 620c11.7 2.5 23.6 4.1 35.7 4.9 2.6.2 5.2.3 7.8.4v38.3L1148 620zm81.7 23.8l-19.7 19.7v-38.3c6.6-.3 13.2-.8 19.7-1.6 7.1-.9 14.1-2 21-3.4 1.1-.2 2.2-.5 3.4-.7l-24.4 24.3zm67.2-54.6c-7 3.2-14.1 6.1-21.5 8.6-.2.1-.4.2-.7.2-7.8 2.7-15.8 5-24 6.8-6.9 1.6-13.9 2.8-21 3.7-8.6 1.1-17.4 1.8-26.2 1.9h-7.6c-4.1-.1-8.2-.2-12.2-.5-16.3-1.1-32.1-3.9-47.3-8.2-.7-.2-1.3-.4-2-.6-6.5-1.9-12.9-4.1-19.2-6.5-.6-.2-1.1-.4-1.6-.7l-11.1 7.9v3.7c2.9 1.2 5.8 2.4 8.8 3.6l3.9 4 17.2 17.3 3.9 3.9 39.3 39.5 8 8.1 4 4 3.8-3.8v3.8h18.5V682l3.8 3.8 12.2-12.3 3.7-3.7 21-21.1 24-24.1.7-.7 16.2-16.3c1.8-.7 3.5-1.4 5.3-2.2.2-.1.5-.2.7-.3h11v-21.9c-3.7 2.3-7.6 4.2-11.6 6zM1148 620c11.7 2.5 23.6 4.1 35.7 4.9 2.6.2 5.2.3 7.8.4v38.3L1148 620zm81.7 23.8l-19.7 19.7v-38.3c6.6-.3 13.2-.8 19.7-1.6 7.1-.9 14.1-2 21-3.4 1.1-.2 2.2-.5 3.4-.7l-24.4 24.3zm67.2-54.6c-7 3.2-14.1 6.1-21.5 8.6-.2.1-.4.2-.7.2-7.8 2.7-15.8 5-24 6.8-6.9 1.6-13.9 2.8-21 3.7-8.6 1.1-17.4 1.8-26.2 1.9h-7.6c-4.1-.1-8.2-.2-12.2-.5-16.3-1.1-32.1-3.9-47.3-8.2-.7-.2-1.3-.4-2-.6-6.5-1.9-12.9-4.1-19.2-6.5-.6-.2-1.1-.4-1.6-.7l-11.1 7.9v3.7c2.9 1.2 5.8 2.4 8.8 3.6l3.9 4 17.2 17.3 3.9 3.9 39.3 39.5 8 8.1 4 4 3.8-3.8v3.8h18.5V682l3.8 3.8 12.2-12.3 3.7-3.7 21-21.1 24-24.1.7-.7 16.2-16.3c1.8-.7 3.5-1.4 5.3-2.2.2-.1.5-.2.7-.3h11v-21.9c-3.7 2.3-7.6 4.2-11.6 6zM1148 620c11.7 2.5 23.6 4.1 35.7 4.9 2.6.2 5.2.3 7.8.4v38.3L1148 620zm81.7 23.8l-19.7 19.7v-38.3c6.6-.3 13.2-.8 19.7-1.6 7.1-.9 14.1-2 21-3.4 1.1-.2 2.2-.5 3.4-.7l-24.4 24.3zm67.2-54.6c-7 3.2-14.1 6.1-21.5 8.6-.2.1-.4.2-.7.2-7.8 2.7-15.8 5-24 6.8-6.9 1.6-13.9 2.8-21 3.7-8.6 1.1-17.4 1.8-26.2 1.9h-7.6c-4.1-.1-8.2-.2-12.2-.5-16.3-1.1-32.1-3.9-47.3-8.2-.7-.2-1.3-.4-2-.6-6.5-1.9-12.9-4.1-19.2-6.5-.6-.2-1.1-.4-1.6-.7l-11.1 7.9v3.7c2.9 1.2 5.8 2.4 8.8 3.6l3.9 4 17.2 17.3 3.9 3.9 39.3 39.5 8 8.1 4 4 3.8-3.8v3.8h18.5V682l3.8 3.8 12.2-12.3 3.7-3.7 21-21.1 24-24.1.7-.7 16.2-16.3c1.8-.7 3.5-1.4 5.3-2.2.2-.1.5-.2.7-.3h11v-21.9c-3.7 2.3-7.6 4.2-11.6 6zM1148 620c11.7 2.5 23.6 4.1 35.7 4.9 2.6.2 5.2.3 7.8.4v38.3L1148 620zm81.7 23.8l-19.7 19.7v-38.3c6.6-.3 13.2-.8 19.7-1.6 7.1-.9 14.1-2 21-3.4 1.1-.2 2.2-.5 3.4-.7l-24.4 24.3zm67.2-54.6c-7 3.2-14.1 6.1-21.5 8.6-.2.1-.4.2-.7.2-7.8 2.7-15.8 5-24 6.8-6.9 1.6-13.9 2.8-21 3.7-8.6 1.1-17.4 1.8-26.2 1.9h-7.6c-4.1-.1-8.2-.2-12.2-.5-16.3-1.1-32.1-3.9-47.3-8.2-.7-.2-1.3-.4-2-.6-6.5-1.9-12.9-4.1-19.2-6.5-.6-.2-1.1-.4-1.6-.7l-11.1 7.9v3.7c2.9 1.2 5.8 2.4 8.8 3.6l3.9 4 17.2 17.3 3.9 3.9 39.3 39.5 8 8.1 4 4 3.8-3.8v3.8h18.5V682l3.8 3.8 12.2-12.3 3.7-3.7 21-21.1 24-24.1.7-.7 16.2-16.3c1.8-.7 3.5-1.4 5.3-2.2.2-.1.5-.2.7-.3h11v-21.9c-3.7 2.3-7.6 4.2-11.6 6zM1148 620c11.7 2.5 23.6 4.1 35.7 4.9 2.6.2 5.2.3 7.8.4v38.3L1148 620zm81.7 23.8l-19.7 19.7v-38.3c6.6-.3 13.2-.8 19.7-1.6 7.1-.9 14.1-2 21-3.4 1.1-.2 2.2-.5 3.4-.7l-24.4 24.3zm67.2-54.6c-7 3.2-14.1 6.1-21.5 8.6-.2.1-.4.2-.7.2-7.8 2.7-15.8 5-24 6.8-6.9 1.6-13.9 2.8-21 3.7-8.6 1.1-17.4 1.8-26.2 1.9h-7.6c-4.1-.1-8.2-.2-12.2-.5-16.3-1.1-32.1-3.9-47.3-8.2-.7-.2-1.3-.4-2-.6-6.5-1.9-12.9-4.1-19.2-6.5-.6-.2-1.1-.4-1.6-.7l-11.1 7.9v3.7c2.9 1.2 5.8 2.4 8.8 3.6l3.9 4 17.2 17.3 3.9 3.9 39.3 39.5 8 8.1 4 4 3.8-3.8v3.8h18.5V682l3.8 3.8 12.2-12.3 3.7-3.7 21-21.1 24-24.1.7-.7 16.2-16.3c1.8-.7 3.5-1.4 5.3-2.2.2-.1.5-.2.7-.3h11v-21.9c-3.7 2.3-7.6 4.2-11.6 6zM1148 620c11.7 2.5 23.6 4.1 35.7 4.9 2.6.2 5.2.3 7.8.4v38.3L1148 620zm81.7 23.8l-19.7 19.7v-38.3c6.6-.3 13.2-.8 19.7-1.6 7.1-.9 14.1-2 21-3.4 1.1-.2 2.2-.5 3.4-.7l-24.4 24.3zm277-277l-11.2-11.1-63.9-63.6c-1.7-4.6-3.6-9.2-5.6-13.7l.2-91.6v-14h-5.4l2.7-2.7-13.1-13.1-2.7 2.7v-5.4h-13.5l-88.6.2c-6.6-3.1-13.2-5.9-20-8.4L1222 82.2l-8.2-8.3-3.8 3.8V74h-18.5v3.8l-3.8-3.8-8 8.1-62.5 62.8c-8 2.8-15.7 6-23.3 9.7l-88.7-.2h-11.4v5.4l-.2-.2-2.6-2.6-1.1 1.1-12 12 2.7 2.7h-5.4v11.5l.1 59.5.1 29.9c-3.3 7.1-6.3 14.3-8.9 21.7L956 305.9 903.7 358l-8.9 8.8 3.8 3.8h-3.8v18.5h3.8l-3.8 3.8 9.2 9.1 34.9 34.8 17.1 17 12.6 12.6c2.1 5.4 4.3 10.7 6.8 16l-.1 43.2-.1 46.2V587h5.4l-2.7 2.7 13.1 13.1 2.7-2.7v5.4h15.7l31.8-.1h20.1l36.5-.1h4c.2.1.5.2.7.3 2.9 1.2 5.8 2.4 8.8 3.6l3.9 4 17.2 17.3 3.9 3.9 39.3 39.5 8 8.1 4 4 3.8-3.8v3.8h18.5v-4l3.8 3.8 12.2-12.3 3.7-3.7 21-21.1 24-24.1.7-.7 16.2-16.3c1.8-.7 3.5-1.4 5.3-2.2.2-.1.5-.2.7-.3h110.3v-5.4l2.7 2.7 13.1-13.1-2.7-2.7h5.4V569l-.1-47.8v-.6l-.1-24.1v-19.1c1.1-2.6 2.2-5.1 3.2-7.7l65.8-65.6 5.3-5.3 6.1-6.1-3.8-3.8h3.8v-18.5h-3.8l4-3.6zm-22.4 3.8h-37.5c-.4-14.4-2.1-28.5-4.9-42.3l42.4 42.3zm-89.6-197.8l-25.3 25.3c-9.9-9.4-20.5-17.8-31.6-25.3h56.9zm13.1 13.1v58.4c-7.5-11.6-16-22.6-25.4-33l25.4-25.4zm-158.4-50.2c-12.9-2.6-26.1-4.2-39.4-4.8V96.3l39.4 39.4zm-57.9-39.4v34.6c-13.2.4-26.2 1.9-38.9 4.3l38.9-38.9zm-129.9 76.5c-9.1 6.2-17.9 13-26.2 20.4-1.4 1.3-2.9 2.6-4.3 3.9l-24.3-24.3h54.8zm-67.9 13.1l24.3 24.3c-2.5 2.7-4.9 5.4-7.2 8.2-6.2 7.3-11.9 14.8-17.1 22.7v-55.2zM956 331.8l.9-.9-.9 4.8c-2 11.4-3.1 23.1-3.5 34.9h-35.3l38.8-38.8zm0 96.2l-1.9-1.9-36.9-36.9h35.4c.5 10.5 1.6 20.9 3.3 31.1.2 1.3.5 2.6.7 3.9.3 1.9.7 3.7 1.1 5.6L956 428zm37.7 87c7.7 11.5 16.4 22.5 26.1 32.7l-26.1 26.1V515zm13.1 72l26.2-26.2c7.7 7 15.8 13.6 24.2 19.5 3.3 2.3 6.6 4.6 10 6.7h-60.4zm141.2 33c11.7 2.5 23.6 4.1 35.7 4.9 2.6.2 5.2.3 7.8.4v38.3L1148 620zm81.7 23.8l-19.7 19.7v-38.3c6.6-.3 13.2-.8 19.7-1.6 7.1-.9 14.1-2 21-3.4 1.1-.2 2.2-.5 3.4-.7l-24.4 24.3zm102.5-56.8c2.7-1.7 5.4-3.5 8-5.3 4.3-3 8.5-6.1 12.6-9.4 5.1-4 10-8.2 14.7-12.6l8.3 8.3 1.7 1.7 17.3 17.3h-62.6zm75.6-13.1l-27.2-27.2c7.5-8 14.3-16.4 20.6-25.2.2-.2.3-.4.4-.6 2.1-3 4.2-6.1 6.2-9.2v62.2zm-1-90.2c-2.3 4.5-4.7 8.8-7.3 13.1-5 8.4-10.5 16.4-16.5 24.1-.2.2-.3.4-.5.6-2.2 2.8-4.5 5.5-6.8 8.2-3.5 4-7.1 8-10.9 11.8-3.9 4-8 7.8-12.1 11.4-6.6 5.8-13.5 11.2-20.7 16.2-1.9 1.3-3.9 2.6-5.8 3.9-2.8 1.8-5.5 3.5-8.4 5.2-3 1.8-6.1 3.5-9.3 5.2-3.8 2-7.8 4-11.7 5.8-7 3.2-14.1 6.1-21.5 8.6-.2.1-.4.2-.7.2-7.8 2.7-15.8 5-24 6.8-6.9 1.6-13.9 2.8-21 3.7-8.6 1.1-17.4 1.8-26.2 1.9h-7.6c-4.1-.1-8.2-.2-12.2-.5-16.3-1.1-32.1-3.9-47.3-8.2-.7-.2-1.3-.4-2-.6-6.5-1.9-12.9-4.1-19.2-6.5-.6-.2-1.1-.4-1.6-.7-3.7-1.5-7.4-3.1-11.1-4.8-8-3.7-15.7-7.8-23.1-12.3-4.8-2.9-9.5-6-14.1-9.3-23.9-17-44.5-38.4-60.5-63-17.4-26.7-29.5-57.2-34.7-90-1.9-11.9-2.9-24.1-2.9-36.5 0-68 29.3-129.2 76-171.8 41.3-37.7 96.3-60.7 156.5-60.7 26.3 0 51.5 4.4 75.1 12.4 11.7 4 23 8.9 33.8 14.7 25.6 13.6 48.4 31.9 67.2 53.7 35.1 40.7 56.4 93.8 56.4 151.7 0 7.1-.3 14.1-.9 21.1-2.7 30.2-11.2 58.8-24.4 84.6zm34.2-51.2c2.4-10.9 4.1-22.1 5.1-33.3.3-3.3.5-6.6.6-10h37.6l-43.3 43.3zm-144.1 156.7c-7 3.2-14.1 6.1-21.5 8.6-.2.1-.4.2-.7.2-7.8 2.7-15.8 5-24 6.8-6.9 1.6-13.9 2.8-21 3.7-8.6 1.1-17.4 1.8-26.2 1.9h-7.6c-4.1-.1-8.2-.2-12.2-.5-16.3-1.1-32.1-3.9-47.3-8.2-.7-.2-1.3-.4-2-.6-6.5-1.9-12.9-4.1-19.2-6.5-.6-.2-1.1-.4-1.6-.7l-11.1 7.9v3.7c2.9 1.2 5.8 2.4 8.8 3.6l3.9 4 17.2 17.3 3.9 3.9 39.3 39.5 8 8.1 4 4 3.8-3.8v3.8h18.5V682l3.8 3.8 12.2-12.3 3.7-3.7 21-21.1 24-24.1.7-.7 16.2-16.3c1.8-.7 3.5-1.4 5.3-2.2.2-.1.5-.2.7-.3h11v-21.9c-3.7 2.3-7.6 4.2-11.6 6zM1148 620c11.7 2.5 23.6 4.1 35.7 4.9 2.6.2 5.2.3 7.8.4v38.3L1148 620zm81.7 23.8l-19.7 19.7v-38.3c6.6-.3 13.2-.8 19.7-1.6 7.1-.9 14.1-2 21-3.4 1.1-.2 2.2-.5 3.4-.7l-24.4 24.3zm67.2-54.6c-7 3.2-14.1 6.1-21.5 8.6-.2.1-.4.2-.7.2-7.8 2.7-15.8 5-24 6.8-6.9 1.6-13.9 2.8-21 3.7-8.6 1.1-17.4 1.8-26.2 1.9h-7.6c-4.1-.1-8.2-.2-12.2-.5-16.3-1.1-32.1-3.9-47.3-8.2-.7-.2-1.3-.4-2-.6-6.5-1.9-12.9-4.1-19.2-6.5-.6-.2-1.1-.4-1.6-.7l-11.1 7.9v3.7c2.9 1.2 5.8 2.4 8.8 3.6l3.9 4 17.2 17.3 3.9 3.9 39.3 39.5 8 8.1 4 4 3.8-3.8v3.8h18.5V682l3.8 3.8 12.2-12.3 3.7-3.7 21-21.1 24-24.1.7-.7 16.2-16.3c1.8-.7 3.5-1.4 5.3-2.2.2-.1.5-.2.7-.3h11v-21.9c-3.7 2.3-7.6 4.2-11.6 6zM1148 620c11.7 2.5 23.6 4.1 35.7 4.9 2.6.2 5.2.3 7.8.4v38.3L1148 620zm81.7 23.8l-19.7 19.7v-38.3c6.6-.3 13.2-.8 19.7-1.6 7.1-.9 14.1-2 21-3.4 1.1-.2 2.2-.5 3.4-.7l-24.4 24.3zm67.2-54.6c-7 3.2-14.1 6.1-21.5 8.6-.2.1-.4.2-.7.2-7.8 2.7-15.8 5-24 6.8-6.9 1.6-13.9 2.8-21 3.7-8.6 1.1-17.4 1.8-26.2 1.9h-7.6c-4.1-.1-8.2-.2-12.2-.5-16.3-1.1-32.1-3.9-47.3-8.2-.7-.2-1.3-.4-2-.6-6.5-1.9-12.9-4.1-19.2-6.5-.6-.2-1.1-.4-1.6-.7l-11.1 7.9v3.7c2.9 1.2 5.8 2.4 8.8 3.6l3.9 4 17.2 17.3 3.9 3.9 39.3 39.5 8 8.1 4 4 3.8-3.8v3.8h18.5V682l3.8 3.8 12.2-12.3 3.7-3.7 21-21.1 24-24.1.7-.7 16.2-16.3c1.8-.7 3.5-1.4 5.3-2.2.2-.1.5-.2.7-.3h11v-21.9c-3.7 2.3-7.6 4.2-11.6 6zM1148 620c11.7 2.5 23.6 4.1 35.7 4.9 2.6.2 5.2.3 7.8.4v38.3L1148 620zm81.7 23.8l-19.7 19.7v-38.3c6.6-.3 13.2-.8 19.7-1.6 7.1-.9 14.1-2 21-3.4 1.1-.2 2.2-.5 3.4-.7l-24.4 24.3zm67.2-54.6c-7 3.2-14.1 6.1-21.5 8.6-.2.1-.4.2-.7.2-7.8 2.7-15.8 5-24 6.8-6.9 1.6-13.9 2.8-21 3.7-8.6 1.1-17.4 1.8-26.2 1.9h-7.6c-4.1-.1-8.2-.2-12.2-.5-16.3-1.1-32.1-3.9-47.3-8.2-.7-.2-1.3-.4-2-.6-6.5-1.9-12.9-4.1-19.2-6.5-.6-.2-1.1-.4-1.6-.7l-11.1 7.9v3.7c2.9 1.2 5.8 2.4 8.8 3.6l3.9 4 17.2 17.3 3.9 3.9 39.3 39.5 8 8.1 4 4 3.8-3.8v3.8h18.5V682l3.8 3.8 12.2-12.3 3.7-3.7 21-21.1 24-24.1.7-.7 16.2-16.3c1.8-.7 3.5-1.4 5.3-2.2.2-.1.5-.2.7-.3h11v-21.9c-3.7 2.3-7.6 4.2-11.6 6zM1148 620c11.7 2.5 23.6 4.1 35.7 4.9 2.6.2 5.2.3 7.8.4v38.3L1148 620zm81.7 23.8l-19.7 19.7v-38.3c6.6-.3 13.2-.8 19.7-1.6 7.1-.9 14.1-2 21-3.4 1.1-.2 2.2-.5 3.4-.7l-24.4 24.3zm67.2-54.6c-7 3.2-14.1 6.1-21.5 8.6-.2.1-.4.2-.7.2-7.8 2.7-15.8 5-24 6.8-6.9 1.6-13.9 2.8-21 3.7-8.6 1.1-17.4 1.8-26.2 1.9h-7.6c-4.1-.1-8.2-.2-12.2-.5-16.3-1.1-32.1-3.9-47.3-8.2-.7-.2-1.3-.4-2-.6-6.5-1.9-12.9-4.1-19.2-6.5-.6-.2-1.1-.4-1.6-.7l-11.1 7.9v3.7c2.9 1.2 5.8 2.4 8.8 3.6l3.9 4 17.2 17.3 3.9 3.9 39.3 39.5 8 8.1 4 4 3.8-3.8v3.8h18.5V682l3.8 3.8 12.2-12.3 3.7-3.7 21-21.1 24-24.1.7-.7 16.2-16.3c1.8-.7 3.5-1.4 5.3-2.2.2-.1.5-.2.7-.3h11v-21.9c-3.7 2.3-7.6 4.2-11.6 6zM1148 620c11.7 2.5 23.6 4.1 35.7 4.9 2.6.2 5.2.3 7.8.4v38.3L1148 620zm81.7 23.8l-19.7 19.7v-38.3c6.6-.3 13.2-.8 19.7-1.6 7.1-.9 14.1-2 21-3.4 1.1-.2 2.2-.5 3.4-.7l-24.4 24.3zm67.2-54.6c-7 3.2-14.1 6.1-21.5 8.6-.2.1-.4.2-.7.2-7.8 2.7-15.8 5-24 6.8-6.9 1.6-13.9 2.8-21 3.7-8.6 1.1-17.4 1.8-26.2 1.9h-7.6c-4.1-.1-8.2-.2-12.2-.5-16.3-1.1-32.1-3.9-47.3-8.2-.7-.2-1.3-.4-2-.6-6.5-1.9-12.9-4.1-19.2-6.5-.6-.2-1.1-.4-1.6-.7l-11.1 7.9v3.7c2.9 1.2 5.8 2.4 8.8 3.6l3.9 4 17.2 17.3 3.9 3.9 39.3 39.5 8 8.1 4 4 3.8-3.8v3.8h18.5V682l3.8 3.8 12.2-12.3 3.7-3.7 21-21.1 24-24.1.7-.7 16.2-16.3c1.8-.7 3.5-1.4 5.3-2.2.2-.1.5-.2.7-.3h11v-21.9c-3.7 2.3-7.6 4.2-11.6 6zM1148 620c11.7 2.5 23.6 4.1 35.7 4.9 2.6.2 5.2.3 7.8.4v38.3L1148 620zm81.7 23.8l-19.7 19.7v-38.3c6.6-.3 13.2-.8 19.7-1.6 7.1-.9 14.1-2 21-3.4 1.1-.2 2.2-.5 3.4-.7l-24.4 24.3zm67.2-54.6c-7 3.2-14.1 6.1-21.5 8.6-.2.1-.4.2-.7.2-7.8 2.7-15.8 5-24 6.8-6.9 1.6-13.9 2.8-21 3.7-8.6 1.1-17.4 1.8-26.2 1.9h-7.6c-4.1-.1-8.2-.2-12.2-.5-16.3-1.1-32.1-3.9-47.3-8.2-.7-.2-1.3-.4-2-.6-6.5-1.9-12.9-4.1-19.2-6.5-.6-.2-1.1-.4-1.6-.7l-11.1 7.9v3.7c2.9 1.2 5.8 2.4 8.8 3.6l3.9 4 17.2 17.3 3.9 3.9 39.3 39.5 8 8.1 4 4 3.8-3.8v3.8h18.5V682l3.8 3.8 12.2-12.3 3.7-3.7 21-21.1 24-24.1.7-.7 16.2-16.3c1.8-.7 3.5-1.4 5.3-2.2.2-.1.5-.2.7-.3h11v-21.9c-3.7 2.3-7.6 4.2-11.6 6zM1148 620c11.7 2.5 23.6 4.1 35.7 4.9 2.6.2 5.2.3 7.8.4v38.3L1148 620zm81.7 23.8l-19.7 19.7v-38.3c6.6-.3 13.2-.8 19.7-1.6 7.1-.9 14.1-2 21-3.4 1.1-.2 2.2-.5 3.4-.7l-24.4 24.3z"/>
    <path class="st3" d="M1203.5 674.7h-7.6c-4.1-.1-8.2-.2-12.2-.4-2.7-.1-5.4-.3-8-.5l8 8.1 4 4 3.8-3.8v3.8h18.5V682l3.8 3.8 12.2-12.3c-7.4.8-14.9 1.1-22.5 1.2zm0 0h-7.6c-4.1-.1-8.2-.2-12.2-.4-2.7-.1-5.4-.3-8-.5l8 8.1 4 4 3.8-3.8v3.8h18.5V682l3.8 3.8 12.2-12.3c-7.4.8-14.9 1.1-22.5 1.2zm0 0h-7.6c-4.1-.1-8.2-.2-12.2-.4-2.7-.1-5.4-.3-8-.5l8 8.1 4 4 3.8-3.8v3.8h18.5V682l3.8 3.8 12.2-12.3c-7.4.8-14.9 1.1-22.5 1.2zm0 0h-7.6c-4.1-.1-8.2-.2-12.2-.4-2.7-.1-5.4-.3-8-.5l8 8.1 4 4 3.8-3.8v3.8h18.5V682l3.8 3.8 12.2-12.3c-7.4.8-14.9 1.1-22.5 1.2zm0 0h-7.6c-4.1-.1-8.2-.2-12.2-.4-2.7-.1-5.4-.3-8-.5l8 8.1 4 4 3.8-3.8v3.8h18.5V682l3.8 3.8 12.2-12.3c-7.4.8-14.9 1.1-22.5 1.2zm0 0h-7.6c-4.1-.1-8.2-.2-12.2-.4-2.7-.1-5.4-.3-8-.5l8 8.1 4 4 3.8-3.8v3.8h18.5V682l3.8 3.8 12.2-12.3c-7.4.8-14.9 1.1-22.5 1.2zm0 0h-7.6c-4.1-.1-8.2-.2-12.2-.4-2.7-.1-5.4-.3-8-.5l8 8.1 4 4 3.8-3.8v3.8h18.5V682l3.8 3.8 12.2-12.3c-7.4.8-14.9 1.1-22.5 1.2zm283.2-417.9c-15.7-37.1-38.2-70.4-66.8-99-28.6-28.6-61.9-51.1-99-66.8-38.4-16.3-79.2-24.5-121.3-24.5s-82.8 8.2-121.3 24.5c-36.1 15.3-68.6 36.9-96.7 64.4-.8.8-1.6 1.5-2.3 2.3-8.3 8.3-16.2 17.1-23.5 26.2-17.7 22.1-32.2 46.5-43.3 72.8-5.8 13.7-10.5 27.7-14.3 41.9-6.8 25.7-10.2 52.3-10.2 79.3 0 29.5 4.1 58.5 12.1 86.4 3.4 11.8 7.5 23.5 12.4 34.9 7.6 18 16.9 35.2 27.6 51.3 4.9 7.4 10.1 14.5 15.7 21.5 7.3 9.1 15.1 17.9 23.5 26.2 13.4 13.4 27.9 25.5 43.3 36.1 4.6 3.2 9.4 6.3 14.2 9.2 1.3.8 2.6 1.6 3.9 2.3 12.1 7.2 24.7 13.5 37.7 19 7.9 3.4 15.9 6.4 24.1 9 4.2 1.4 8.4 2.7 12.7 3.9 3 .9 6.1 1.7 9.2 2.4 4 1 8 1.9 12 2.7 15.5 3.2 31.3 5.2 47.3 6 4.1.2 8.1.3 12.2.4h7.6c8.8-.1 17.6-.6 26.2-1.4 15.2-1.4 30.3-4 45-7.7 7.4-1.8 14.8-4 22.1-6.4 3.9-1.3 7.8-2.7 11.7-4.1 4.1-1.5 8.3-3.2 12.3-4.9 1.8-.8 3.6-1.5 5.3-2.3 9.1-4 17.9-8.5 26.5-13.3 2.6-1.4 5.1-2.9 7.7-4.5 4.8-2.9 9.6-6 14.2-9.1.4-.3.7-.5 1.1-.8.6-.4 1.1-.8 1.7-1.2 15.1-10.5 29.3-22.4 42.5-35.6 13-13 24.7-27 35.1-41.8 3.5-4.9 6.8-9.9 9.9-15 4-6.5 7.8-13.2 11.3-20l.3-.6c3.6-7 7-14.2 10.1-21.5.3-.8.7-1.7 1-2.5.5-1.2 1-2.4 1.5-3.7 1.3-3.1 2.5-6.3 3.6-9.5 2.4-6.6 4.5-13.3 6.5-20 6-21 9.8-42.6 11.2-64.6.1-1.9.2-3.7.3-5.6.3-5.1.4-10.3.4-15.5.2-41.6-8-82.4-24.3-120.8zm-27 264.1l-.3.6c-9.4 17-20.5 33.1-33 47.8-11 13.1-23.2 25.2-36.3 36.1-4.1 3.5-8.3 6.8-12.6 10-.6.4-1.1.8-1.7 1.2-3 2.2-6.1 4.4-9.2 6.5-4.5 3.1-9.2 6.1-13.9 8.9-.1.1-.3.2-.4.2-8.4 5.1-17.2 9.8-26.1 14-5.8 2.8-11.7 5.3-17.7 7.7-3.9 1.5-7.8 3-11.7 4.3-7.3 2.5-14.6 4.8-22.1 6.7-14.6 3.8-29.6 6.6-45 8.1-1.2.1-2.4.2-3.7.3-7.4.7-15 1.1-22.6 1.2h-7.6c-4.1-.1-8.2-.2-12.2-.4-2.7-.1-5.4-.3-8-.5-13.4-1.1-26.5-3-39.3-5.8-3-.7-5.9-1.3-8.9-2.1-4.1-1-8.2-2.2-12.3-3.4-4.3-1.3-8.5-2.6-12.7-4.1-16.9-5.9-33.1-13.2-48.4-21.9-3.1-1.8-6.2-3.6-9.2-5.4-4.8-2.9-9.5-6-14.1-9.3-7.4-5.1-14.5-10.6-21.4-16.3-12.3-10.3-23.7-21.5-34.2-33.7-6.8-7.9-13.2-16.2-19.2-24.8-1.2-1.7-2.3-3.4-3.5-5.1-17.5-26.3-30.9-55.5-39.3-86.7-4.6-17.1-7.8-34.9-9.2-53.1-.7-7.9-1-16-1-24.1 0-6.8.2-13.4.7-20.1 1.7-25.5 6.6-50 14.4-73.3 9-27.1 21.9-52.6 37.9-75.6 6-8.6 12.4-16.8 19.2-24.7 7-8.1 14.4-15.8 22.2-23.1 2.5-2.3 5.1-4.7 7.7-6.9 47.4-41.3 108-67.8 174.6-72.3 6.6-.5 13.3-.7 20.1-.7 7.5 0 15 .3 22.4.8 65.7 4.9 125.4 31.3 172.3 72.1 11.5 10 22.2 20.8 32 32.5 39.2 46.4 64.4 104.8 69.2 168.9.6 7.4.8 14.8.8 22.4 0 7.1-.3 14.1-.8 21.1-.1 1.8-.3 3.5-.4 5.3-2.4 27.7-8.7 54.3-18.3 79.2-1.7 4.4-3.5 8.8-5.4 13.1-3.5 8.5-7.5 16.6-11.8 24.4zm-256.2 153.8h-7.6c-4.1-.1-8.2-.2-12.2-.4-2.7-.1-5.4-.3-8-.5l8 8.1 4 4 3.8-3.8v3.8h18.5V682l3.8 3.8 12.2-12.3c-7.4.8-14.9 1.1-22.5 1.2zm0 0h-7.6c-4.1-.1-8.2-.2-12.2-.4-2.7-.1-5.4-.3-8-.5l8 8.1 4 4 3.8-3.8v3.8h18.5V682l3.8 3.8 12.2-12.3c-7.4.8-14.9 1.1-22.5 1.2zm0 0h-7.6c-4.1-.1-8.2-.2-12.2-.4-2.7-.1-5.4-.3-8-.5l8 8.1 4 4 3.8-3.8v3.8h18.5V682l3.8 3.8 12.2-12.3c-7.4.8-14.9 1.1-22.5 1.2zm0 0h-7.6c-4.1-.1-8.2-.2-12.2-.4-2.7-.1-5.4-.3-8-.5l8 8.1 4 4 3.8-3.8v3.8h18.5V682l3.8 3.8 12.2-12.3c-7.4.8-14.9 1.1-22.5 1.2zm0 0h-7.6c-4.1-.1-8.2-.2-12.2-.4-2.7-.1-5.4-.3-8-.5l8 8.1 4 4 3.8-3.8v3.8h18.5V682l3.8 3.8 12.2-12.3c-7.4.8-14.9 1.1-22.5 1.2zm0 0h-7.6c-4.1-.1-8.2-.2-12.2-.4-2.7-.1-5.4-.3-8-.5l8 8.1 4 4 3.8-3.8v3.8h18.5V682l3.8 3.8 12.2-12.3c-7.4.8-14.9 1.1-22.5 1.2zm0 0h-7.6c-4.1-.1-8.2-.2-12.2-.4-2.7-.1-5.4-.3-8-.5l8 8.1 4 4 3.8-3.8v3.8h18.5V682l3.8 3.8 12.2-12.3c-7.4.8-14.9 1.1-22.5 1.2z"/>
    <path class="st3" d="M1199.7 344v68.2c18.8 0 34.1-15.3 34.1-34.1 0-18.9-15.3-34.1-34.1-34.1z"/>
    <path class="st38" d="M1165.6 378.1c0 18.8 15.3 34.1 34.1 34.1V344c-18.8 0-34.1 15.2-34.1 34.1z"/>
    <g>
      <path class="st39" d="M1199.7 361.5v33.2c9.2 0 16.6-7.4 16.6-16.6 0-9.2-7.4-16.6-16.6-16.6z"/>
      <path class="st40" d="M1183.1 378.1c0 9.2 7.4 16.6 16.6 16.6v-33.2c-9.2 0-16.6 7.4-16.6 16.6z"/>
    </g>
  </g>
  <path class="st21" d="M793.1 733.1s64.5 97.7 258 97.7h476.2v-97.7H793.1z"/>
  <path class="st22" d="M793.1 707.6h750v25.6h-750z"/>
  <path id="Tree1" class="st10" d="M1624.3,726.1c0-34.8-28.2-63-63-63c-28.4,0-52.5,18.9-60.3,44.7c-1.7-0.1-3.5-0.2-5.3-0.2 c-34.8,0-63,28.2-63,63c0,34.8,28.2,63,63,63c6,0,11.7-0.8,17.2-2.4c6.7,7.3,16.4,11.9,27.1,11.9c12.1,0,22.9-5.9,29.6-14.9 c2,0.3,4.1,0.5,6.2,0.5c20.4,0,36.9-16.5,36.9-36.9c0-8-2.5-15.3-6.8-21.3C1617.3,759.2,1624.3,743.5,1624.3,726.1z"/>
  <path id="Road2" class="st41" d="M3000 884.9H0v43.4h3000z"/>
  <g id="Underground">
  	<path class="st56" d="M1199.7,825.9c-28.3,0-51.4-23.1-51.4-51.4s23.1-51.4,51.4-51.4c28.3,0,51.4,23.1,51.4,51.4 S1228,825.9,1199.7,825.9z M1199.7,740.1c-19,0-34.4,15.4-34.4,34.4s15.4,34.4,34.4,34.4c19,0,34.4-15.4,34.4-34.4 S1218.7,740.1,1199.7,740.1z"/>
  	<rect x="1142.1" y="764.6" class="st43" width="115.3" height="20.5"/>
  	<rect x="1157.1" y="769.6" class="st57" width="85.2" height="10.5"/>
  </g>
  <g id="Bus3">
  	<path class="st42" d="M3381,876.8c0,4.4,4.5,8.1,10,8.1h351.2c5.5,0,10-3.6,10-8.1c0-4.4-4.5-8.1-10-8.1H3391
  		C3385.5,868.7,3381,872.4,3381,876.8z"/>
  	<g>
  		<path class="st43" d="M3381,821c0,15.6,12.8,28.3,28.3,28.3h61.5c15.6,0,28.3-12.8,28.3-28.3v-20.6c0-15.6-12.8-28.3-28.3-28.3
  			h-61.5c-15.6,0-28.3,12.8-28.3,28.3V821z"/>
  		<path class="st43" d="M3443.7,821c0,15.6,12.8,28.3,28.3,28.3h259.4c15.6,0,28.3-12.8,28.3-28.3v-98c0-15.6-12.8-28.3-28.3-28.3
  			H3472c-15.6,0-28.3,12.8-28.3,28.3V821z"/>
  		<path class="st43" d="M3427.1,594.6h304.3c15.6,0,28.3,12.8,28.3,28.3V641v7.8v45.8h-361v-45.8V641v-18.1
  			C3398.8,607.4,3411.6,594.6,3427.1,594.6z"/>
  		<path class="st0" d="M3741.7,676.6v-53.6c0-5.6-4.7-10.2-10.2-10.2h-304.3c-5.6,0-10.2,4.7-10.2,10.2v53.6H3741.7z"/>
  		<rect x="3629.4" y="605.4" class="st43" width="16.9" height="83.2"/>
  		<rect x="3505.2" y="605.4" class="st43" width="16.9" height="83.2"/>
  		<rect x="3729.5" y="688.6" class="st43" width="30.3" height="60.9"/>
  		<rect x="3443.7" y="688.6" class="st43" width="30.3" height="60.9"/>
  		<path class="st0" d="M3741.7,789.9v-53.6c0-5.6-4.7-10.2-10.2-10.2h-250c-5.6,0-10.2,4.7-10.2,10.2v53.6H3741.7z"/>
  		<rect x="3660.8" y="719.1" class="st43" width="16.9" height="83.2"/>
  		<rect x="3536.6" y="719.1" class="st43" width="16.9" height="83.2"/>
  		<rect x="3677.7" y="789.9" class="st0" width="64" height="59.4"/>
  		<rect x="3443.7" y="694.7" class="st44" width="316.1" height="13.3"/>
  		<rect x="3443.7" y="836" class="st44" width="318.3" height="13.3"/>
  		<path class="st45" d="M3629.4,805.4c24.3,0,43.9,19.7,43.9,43.9h-87.8C3585.5,825,3605.1,805.4,3629.4,805.4z"/>
  		<path class="st45" d="M3446.5,805.4c24.3,0,43.9,19.7,43.9,43.9h-87.8C3402.6,825,3422.3,805.4,3446.5,805.4z"/>
  		<g>
				<path class="st46" d="M3595.9,849.3c0,18.5,15,33.5,33.5,33.5s33.5-15,33.5-33.5c0-18.5-15-33.5-33.5-33.5
					S3595.9,830.8,3595.9,849.3z"/>
				<circle id="Bus3Wheel2" class="st44" cx="3629.4" cy="849.3" r="18.4"/>
  			<path class="st47" d="M3629.4,815.8v66.9c18.5,0,33.5-15,33.5-33.5C3662.9,830.8,3647.9,815.8,3629.4,815.8z"/>
  		</g>
  		<g>
				<path class="st46" d="M3413.1,849.3c0,18.5,15,33.5,33.5,33.5s33.5-15,33.5-33.5c0-18.5-15-33.5-33.5-33.5
					S3413.1,830.8,3413.1,849.3z"/>
				<circle id="Bus3Wheel1" class="st44" cx="3446.5" cy="849.3" r="18.4"/>
  			<path class="st47" d="M3446.5,815.8v66.9c18.5,0,33.5-15,33.5-33.5C3480,830.8,3465,815.8,3446.5,815.8z"/>
  		</g>
  	</g>
  </g>
  <g id="Bus1">
  	<path class="st42" d="M3000.5,876.8c0,4.4,4.5,8.1,10,8.1h351.2c5.5,0,10-3.6,10-8.1c0-4.4-4.5-8.1-10-8.1h-351.2
  		C3005,868.7,3000.5,872.4,3000.5,876.8z"/>
  	<g>
  		<path class="st43" d="M3000,821c0,15.6,12.8,28.3,28.3,28.3h61.5c15.6,0,28.3-12.8,28.3-28.3v-20.6c0-15.6-12.8-28.3-28.3-28.3
  			h-61.5c-15.6,0-28.3,12.8-28.3,28.3V821z"/>
  		<path class="st43" d="M3062.7,821c0,15.6,12.8,28.3,28.3,28.3h259.4c15.6,0,28.3-12.8,28.3-28.3v-98c0-15.6-12.8-28.3-28.3-28.3
  			H3091c-15.6,0-28.3,12.8-28.3,28.3V821z"/>
  		<path class="st43" d="M3046.1,594.6h304.3c15.6,0,28.3,12.8,28.3,28.3V641v7.8v45.8h-361v-45.8V641v-18.1
  			C3017.8,607.4,3030.5,594.6,3046.1,594.6z"/>
  		<path class="st0" d="M3360.7,676.6v-53.6c0-5.6-4.7-10.2-10.2-10.2h-304.3c-5.6,0-10.2,4.7-10.2,10.2v53.6H3360.7z"/>
  		<rect x="3248.4" y="605.4" class="st43" width="16.9" height="83.2"/>
  		<rect x="3124.2" y="605.4" class="st43" width="16.9" height="83.2"/>
  		<rect x="3348.5" y="688.6" class="st43" width="30.3" height="60.9"/>
  		<rect x="3062.7" y="688.6" class="st43" width="30.3" height="60.9"/>
  		<path class="st0" d="M3360.7,789.9v-53.6c0-5.6-4.7-10.2-10.2-10.2h-250c-5.6,0-10.2,4.7-10.2,10.2v53.6H3360.7z"/>
  		<rect x="3279.8" y="719.1" class="st43" width="16.9" height="83.2"/>
  		<rect x="3155.6" y="719.1" class="st43" width="16.9" height="83.2"/>
  		<rect x="3296.7" y="789.9" class="st0" width="64" height="59.4"/>
  		<rect x="3062.7" y="694.7" class="st44" width="316.1" height="13.3"/>
  		<rect x="3062.7" y="836" class="st44" width="318.3" height="13.3"/>
  		<g>
  			<path class="st45" d="M3248.4,805.4c24.3,0,43.9,19.7,43.9,43.9h-87.8C3204.5,825,3224.1,805.4,3248.4,805.4z"/>
  		</g>
  		<g>
  			<path class="st45" d="M3065.5,805.4c24.3,0,43.9,19.7,43.9,43.9h-87.8C3021.6,825,3041.3,805.4,3065.5,805.4z"/>
  		</g>
  		<g>
				<path class="st46" d="M3214.9,849.3c0,18.5,15,33.5,33.5,33.5s33.5-15,33.5-33.5c0-18.5-15-33.5-33.5-33.5
					S3214.9,830.8,3214.9,849.3z"/>
				<circle id="Bus1Wheel2" class="st44" cx="3248.4" cy="849.3" r="18.4"/>
  			<path class="st47" d="M3248.4,815.8v66.9c18.5,0,33.5-15,33.5-33.5C3281.9,830.8,3266.9,815.8,3248.4,815.8z"/>
  		</g>
  		<g>
				<path class="st46" d="M3032,849.3c0,18.5,15,33.5,33.5,33.5s33.5-15,33.5-33.5c0-18.5-15-33.5-33.5-33.5S3032,830.8,3032,849.3z
					"/>
				<circle id="Bus1Wheel1" class="st44" cx="3065.5" cy="849.3" r="18.4"/>
  			<path class="st47" d="M3065.5,815.8v66.9c18.5,0,33.5-15,33.5-33.5C3099,830.8,3084,815.8,3065.5,815.8z"/>
  		</g>
  	</g>
  </g>
  <g id="Bus2">
  	<path class="st42" d="M-359.9,920.2c0,4.4-4.5,8.1-10,8.1h-351.2c-5.5,0-10-3.6-10-8.1c0-4.4,4.5-8.1,10-8.1h351.2
  		C-364.4,912.1-359.9,915.8-359.9,920.2z"/>
  	<g>
  		<path class="st43" d="M-359.4,864.4c0,15.6-12.8,28.3-28.3,28.3h-61.5c-15.6,0-28.3-12.8-28.3-28.3v-20.6
  			c0-15.6,12.8-28.3,28.3-28.3h61.5c15.6,0,28.3,12.8,28.3,28.3V864.4z"/>
  		<path class="st43" d="M-422.1,864.4c0,15.6-12.8,28.3-28.3,28.3h-259.4c-15.6,0-28.3-12.8-28.3-28.3v-98
  			c0-15.6,12.8-28.3,28.3-28.3h259.4c15.6,0,28.3,12.8,28.3,28.3V864.4z"/>
  		<path class="st43" d="M-405.5,638h-304.3c-15.6,0-28.3,12.8-28.3,28.3v18.1v7.8v45.8h361v-45.8v-7.8v-18.1
  			C-377.2,650.8-389.9,638-405.5,638z"/>
  		<path class="st0" d="M-720.1,720v-53.6c0-5.6,4.7-10.2,10.2-10.2h304.3c5.6,0,10.2,4.7,10.2,10.2V720H-720.1z"/>
  		<rect x="-624.7" y="648.8" class="st43" width="16.9" height="83.2"/>
  		<rect x="-500.5" y="648.8" class="st43" width="16.9" height="83.2"/>
  		<rect x="-738.2" y="732" class="st43" width="30.3" height="60.9"/>
  		<rect x="-452.4" y="732" class="st43" width="30.3" height="60.9"/>
  		<path class="st0" d="M-720.1,833.3v-53.6c0-5.6,4.7-10.2,10.2-10.2h250c5.6,0,10.2,4.7,10.2,10.2v53.6H-720.1z"/>
  		<rect x="-656.1" y="762.5" class="st43" width="16.9" height="83.2"/>
  		<rect x="-531.9" y="762.5" class="st43" width="16.9" height="83.2"/>
  		<rect x="-720.1" y="833.3" class="st0" width="64" height="59.4"/>
  		<rect x="-738.2" y="738.1" class="st44" width="316.1" height="13.3"/>
  		<rect x="-740.4" y="879.4" class="st44" width="318.3" height="13.3"/>
  		<g>
  			<path class="st45" d="M-607.8,848.8c-24.3,0-43.9,19.7-43.9,43.9h87.8C-563.9,868.4-583.5,848.8-607.8,848.8z"/>
  		</g>
  		<g>
  			<path class="st45" d="M-424.9,848.8c-24.3,0-43.9,19.7-43.9,43.9h87.8C-381,868.4-400.7,848.8-424.9,848.8z"/>
  		</g>
  		<g>
				<path class="st46" d="M-574.3,892.7c0,18.5-15,33.5-33.5,33.5s-33.5-15-33.5-33.5c0-18.5,15-33.5,33.5-33.5
					S-574.3,874.2-574.3,892.7z"/>
				<circle id="Bus2Wheel2" class="st44" cx="-607.8" cy="892.7" r="18.4"/>
  			<path class="st47" d="M-607.8,859.2v66.9c-18.5,0-33.5-15-33.5-33.5C-641.3,874.2-626.3,859.2-607.8,859.2z"/>
  		</g>
  		<g>
				<path class="st46" d="M-391.5,892.7c0,18.5-15,33.5-33.5,33.5s-33.5-15-33.5-33.5c0-18.5,15-33.5,33.5-33.5
					S-391.5,874.2-391.5,892.7z"/>
				<circle id="Bus2Wheel1" class="st44" cx="-424.9" cy="892.7" r="18.4"/>
  			<path class="st47" d="M-424.9,859.2v66.9c-18.5,0-33.5-15-33.5-33.5C-458.4,874.2-443.4,859.2-424.9,859.2z"/>
  		</g>
  	</g>
  </g>
  <g id="Taxi">
  	<path class="st42" d="M-18.8,923.9c0,2.4-2,4.3-4.3,4.3h-325.6c-2.4,0-4.3-2-4.3-4.3v-5.2c0-2.4,2-4.3,4.3-4.3h325.6
  		c2.4,0,4.3,2,4.3,4.3V923.9z"/>
  	<circle class="st48" cx="-348.7" cy="867.4" r="7.8"/>
  	<circle class="st49" cx="-18.8" cy="859" r="14.6"/>
  	<path class="st42" d="M-352.2,888.3c0,0-7.2-34.7,19.5-54.2c11.6-6.5,15.9-24.1,21-33c5.1-8.9,13-14.7,67.2-14.7
  		c54.2,0,109.2,2.9,109.2,2.9l31.1,42.7c0,0,81-0.7,90.4,11.6c9.4,12.3,0,54.2,0,54.2H-345L-352.2,888.3z"/>
  	<path class="st49" d="M-308.1,893.4c0,2.4-2,4.3-4.3,4.3h-42.7c-2.4,0-4.3-2-4.3-4.3v-5.1c0-2.4,2-4.3,4.3-4.3h42.7
  		c2.4,0,4.3,2,4.3,4.3V893.4z"/>
  	<path class="st49" d="M-0.1,893.4c0,2.4-2,4.3-4.3,4.3h-42.7c-2.4,0-4.3-2-4.3-4.3v-5.1c0-2.4,2-4.3,4.3-4.3h42.7
  		c2.4,0,4.3,2,4.3,4.3V893.4z"/>
  	<path class="st50" d="M-195,823.6c0,4.8-3.9,8.7-8.7,8.7h-32.2c-4.8,0-8.7-3.9-8.7-8.7v-10.1c0-4.8,3.9-8.7,8.7-8.7h32.2
  		c4.8,0,8.7,3.9,8.7,8.7V823.6z"/>
  	<path class="st50" d="M-135.6,825c2.5,4,0.7,7.3-4,7.3h-32.2c-4.8,0-8.7-3.9-8.7-8.7v-10.1c0-4.8,3.9-8.7,8.7-8.7h14.8
  		c4.8,0,10.8,3.3,13.3,7.3L-135.6,825z"/>
  	<path class="st50" d="M-303.7,825c-2.5,4-0.7,7.3,4,7.3h32.2c4.8,0,8.7-3.9,8.7-8.7v-10.1c0-4.8-3.9-8.7-8.7-8.7h-14.8
  		c-4.8,0-10.8,3.3-13.3,7.3L-303.7,825z"/>
    <path class="st51" d="M-294.3,860.4c-20.6,0-37.4,16.7-37.4,37.4h74.7C-257,877.1-273.7,860.4-294.3,860.4z"/>
  	<g>
			<circle id="TaxiWheel2" class="st52" cx="-294.3" cy="896.5" r="30.7"/>
			<circle class="st53" cx="-294.3" cy="896.5" r="24.9"/>
			<circle class="st52" cx="-294.3" cy="896.5" r="17"/>
			<circle class="st54" cx="-294.3" cy="896.5" r="12.5"/>
			<circle class="st55" cx="-297.4" cy="894" r="7.2"/>
  	</g>
    <path class="st51" d="M-63.1,860.4c-20.6,0-37.4,16.7-37.4,37.4h74.7C-25.7,877.1-42.5,860.4-63.1,860.4z"/>
  	<g>
			<circle id="TaxiWheel1" class="st52" cx="-63.1" cy="896.5" r="30.7"/>
			<circle class="st53" cx="-63.1" cy="896.5" r="24.9"/>
			<circle class="st52" cx="-63.1" cy="896.5" r="17"/>
			<circle class="st54" cx="-63.1" cy="896.5" r="12.5"/>
			<circle class="st55" cx="-66.2" cy="894" r="7.2"/>
  	</g>
  	<rect x="-257" y="890.9" class="st51" width="160" height="6.9"/>
  	<rect x="-242.5" y="840.5" class="st51" width="19.8" height="5.2"/>
  	<rect x="-177.3" y="840.5" class="st51" width="19.8" height="5.2"/>
  </g>
  <g id="Birds">
    <path class="st18" d="M2433.5 148.1l-2.6-2.1c-20-15.6-55.9-13.3-56.3-13.3l-.5-7c1.5-.1 36.3-2.4 58.7 13 4.8-3.9 17-11.7 40.3-13.1l.4 7c-27.9 1.7-37.8 12.8-37.9 12.9l-2.1 2.6zM1802.1 325.8l-1.8-1.4c-14-10.9-39.1-9.3-39.3-9.3l-.3-4.9c1.1-.1 25.4-1.7 41 9.1 3.3-2.7 11.9-8.2 28.2-9.2l.3 4.9c-19.5 1.2-26.4 9-26.4 9l-1.7 1.8zM1490.2 110.4l-1.8-1.4c-14-10.9-39.1-9.3-39.3-9.3l-.3-4.9c1.1-.1 25.4-1.7 41 9.1 3.3-2.7 11.9-8.2 28.2-9.2l.3 4.9c-19.5 1.2-26.4 9-26.4 9l-1.7 1.8zM1795 52.4l-1.8-1.4c-14-10.9-39.1-9.3-39.3-9.3l-.3-4.9c1.1-.1 25.4-1.7 41 9.1 3.3-2.7 11.9-8.2 28.2-9.2l.3 4.9c-19.5 1.2-26.4 9-26.4 9l-1.7 1.8zM515.4 351.8l-1.8-1.4c-14-10.9-39.1-9.3-39.3-9.3l-.3-4.9c1.1-.1 25.4-1.7 41 9.1 3.3-2.7 11.9-8.2 28.2-9.2l.3 4.9c-19.5 1.2-26.4 9-26.4 9l-1.7 1.8zM194.7 247l-1.8-1.4c-14-10.9-39.1-9.3-39.3-9.3l-.3-4.9c1.1-.1 25.4-1.7 41 9.1 3.3-2.7 11.9-8.2 28.2-9.2l.3 4.9c-19.5 1.2-26.4 9-26.4 9l-1.7 1.8z"/>
  </g>
</svg>
